<svg width="226" height="44" viewBox="0 0 226 44" fill="none" xmlns="http://www.w3.org/2000/svg">
<path d="M87.8439 21.7469H82.8849C82.8589 21.4413 82.7515 21.1779 82.5628 20.9568C82.3741 20.7357 82.13 20.5666 81.8306 20.4496C81.5378 20.326 81.2124 20.2642 80.8545 20.2642C80.3924 20.2642 79.9954 20.3488 79.6635 20.5178C79.3316 20.6869 79.1689 20.9275 79.1754 21.2397C79.1689 21.4608 79.2633 21.6656 79.4585 21.8542C79.6603 22.0428 80.0475 22.1891 80.6202 22.2931L83.6659 22.8394C85.2017 23.119 86.3438 23.5905 87.0922 24.2538C87.8472 24.9105 88.2279 25.7917 88.2344 26.8972C88.2279 27.9636 87.909 28.8903 87.2777 29.6772C86.653 30.4575 85.7972 31.0623 84.7104 31.4915C83.6301 31.9141 82.3968 32.1255 81.0107 32.1255C78.7199 32.1255 76.927 31.6573 75.6319 30.7209C74.3434 29.7845 73.6242 28.5489 73.4746 27.0142H78.824C78.8956 27.4889 79.1299 27.8563 79.5269 28.1165C79.9304 28.3701 80.438 28.4969 81.0497 28.4969C81.5443 28.4969 81.951 28.4123 82.2699 28.2433C82.5953 28.0742 82.7613 27.8336 82.7678 27.5215C82.7613 27.2353 82.6181 27.0077 82.3383 26.8386C82.0649 26.6696 81.6354 26.533 81.0497 26.429L78.3945 25.9608C76.8652 25.6941 75.7198 25.1869 74.9583 24.4391C74.1969 23.6913 73.8195 22.7288 73.826 21.5518C73.8195 20.5113 74.0928 19.6302 74.646 18.9084C75.2056 18.1801 76.0029 17.6273 77.0376 17.2501C78.0789 16.8665 79.3121 16.6746 80.7373 16.6746C82.9044 16.6746 84.6128 17.1233 85.8623 18.0207C87.1183 18.9181 87.7788 20.1602 87.8439 21.7469Z" fill="#FAFAFA"/>
<path d="M64.732 32.1255C63.105 32.1255 61.7123 31.8036 60.5539 31.1598C59.3955 30.5095 58.5072 29.6056 57.889 28.4481C57.2707 27.2841 56.9616 25.9347 56.9616 24.4001C56.9616 22.8654 57.2707 21.5193 57.889 20.3618C58.5072 19.1978 59.3955 18.2939 60.5539 17.6501C61.7123 16.9998 63.105 16.6746 64.732 16.6746C66.3589 16.6746 67.7516 16.9998 68.91 17.6501C70.0684 18.2939 70.9567 19.1978 71.575 20.3618C72.1932 21.5193 72.5023 22.8654 72.5023 24.4001C72.5023 25.9347 72.1932 27.2841 71.575 28.4481C70.9567 29.6056 70.0684 30.5095 68.91 31.1598C67.7516 31.8036 66.3589 32.1255 64.732 32.1255ZM64.771 28.1457C65.2266 28.1457 65.6203 27.9929 65.9522 27.6873C66.2841 27.3816 66.5412 26.9459 66.7234 26.3802C66.9056 25.8144 66.9967 25.1414 66.9967 24.361C66.9967 23.5742 66.9056 22.9012 66.7234 22.3419C66.5412 21.7762 66.2841 21.3405 65.9522 21.0348C65.6203 20.7292 65.2266 20.5764 64.771 20.5764C64.2894 20.5764 63.8762 20.7292 63.5313 21.0348C63.1864 21.3405 62.9228 21.7762 62.7406 22.3419C62.5583 22.9012 62.4672 23.5742 62.4672 24.361C62.4672 25.1414 62.5583 25.8144 62.7406 26.3802C62.9228 26.9459 63.1864 27.3816 63.5313 27.6873C63.8762 27.9929 64.2894 28.1457 64.771 28.1457Z" fill="#FAFAFA"/>
<path d="M32.2061 31.8524V16.8697H37.3213V19.718H37.4775C37.7898 18.7816 38.3235 18.0402 39.0784 17.494C39.8333 16.9478 40.7314 16.6746 41.7727 16.6746C42.8269 16.6746 43.7348 16.9543 44.4962 17.5135C45.2576 18.0663 45.7164 18.8011 45.8726 19.718H46.0288C46.2826 18.8011 46.8228 18.0663 47.6493 17.5135C48.4757 16.9543 49.4454 16.6746 50.5583 16.6746C51.9965 16.6746 53.1614 17.1363 54.053 18.0598C54.9511 18.9832 55.4001 20.2122 55.4001 21.7469V31.8524H50.0116V23.1125C50.0116 22.4557 49.8456 21.942 49.5138 21.5713C49.1819 21.1941 48.7361 21.0056 48.1764 21.0056C47.6232 21.0056 47.1839 21.1941 46.8585 21.5713C46.5397 21.942 46.3802 22.4557 46.3802 23.1125V31.8524H41.226V23.1125C41.226 22.4557 41.06 21.942 40.7281 21.5713C40.3962 21.1941 39.9505 21.0056 39.3908 21.0056C39.0198 21.0056 38.701 21.0901 38.4341 21.2592C38.1673 21.4282 37.9591 21.6721 37.8094 21.9907C37.6662 22.3029 37.5946 22.6768 37.5946 23.1125V31.8524H32.2061Z" fill="#FAFAFA"/>
<path d="M30.5563 16.8697V20.7715H20.6773V16.8697H30.5563ZM22.5906 13.2801H27.9792V27.0337C27.9792 27.2418 28.0149 27.4174 28.0865 27.5605C28.1581 27.697 28.2688 27.8011 28.4184 27.8726C28.5681 27.9376 28.7601 27.9701 28.9944 27.9701C29.1571 27.9701 29.3458 27.9506 29.5606 27.9116C29.7818 27.8726 29.9445 27.8401 30.0487 27.8141L30.8296 31.5988C30.5888 31.6703 30.2439 31.7581 29.7948 31.8621C29.3523 31.9662 28.8252 32.0344 28.2134 32.067C26.9769 32.132 25.9389 32.0052 25.0994 31.6865C24.2599 31.3614 23.6287 30.8509 23.2056 30.1551C22.7826 29.4593 22.5776 28.5879 22.5906 27.541V13.2801Z" fill="#FAFAFA"/>
<path d="M6.34145 31.8523H0.484375L7.08334 11.8755H14.5023L21.1013 31.8523H15.2442L10.8709 17.3769H10.7147L6.34145 31.8523ZM5.24813 23.9708H16.2594V28.0286H5.24813V23.9708Z" fill="#FAFAFA"/>
<path d="M141.297 30.6727H150.705V28.9969H143.237V24.4104H148.559V22.764H143.237V19.0008H150.705V17.3249H141.297V30.6727ZM154.351 26.3214V16.5899L152.557 17.3249V26.7331C152.557 28.4089 152.998 30.2317 154.88 31.0843L155.85 29.7613C154.674 29.1145 154.321 28.2031 154.351 26.3214ZM161.348 20.706C158.496 20.706 156.908 21.9408 156.908 25.7922C156.908 29.7907 158.643 30.9667 161.524 30.9667C162.436 30.9667 163.847 30.7315 164.817 30.4375L164.494 28.9381C163.7 29.2027 162.436 29.4085 161.73 29.4085C159.76 29.4085 158.849 28.8793 158.849 26.2333H165.493V25.7628C165.464 21.7056 164.17 20.706 161.348 20.706ZM158.849 24.7338C158.996 22.7934 159.613 22.2348 161.377 22.2348C162.936 22.2348 163.494 22.6758 163.582 24.7338H158.849ZM170.55 29.3497C169.315 29.3497 168.933 28.7323 168.933 27.3211V22.5876H172.344V20.9706H168.933V18.3834L167.11 19.1184V27.4093C167.11 30.2905 168.081 30.9373 170.286 30.9373C171.079 30.9373 172.079 30.7315 172.667 30.5257L172.314 29.0263C171.814 29.2321 171.226 29.3497 170.55 29.3497ZM175.754 21.6762V20.9706H173.931V30.7021H175.754V23.6166C175.754 22.8816 176.93 22.4406 178.224 22.4406C178.635 22.4406 179.018 22.47 179.341 22.5288V20.8824C179.018 20.853 178.665 20.8236 178.341 20.8236C176.96 20.8236 176.078 21.1764 175.754 21.6762ZM203.008 21.6762V20.9706H201.185V30.7021H203.008V23.6166C203.008 22.8816 204.184 22.4406 205.478 22.4406C205.889 22.4406 206.272 22.47 206.595 22.5288V20.8824C206.272 20.853 205.919 20.8236 205.595 20.8236C204.214 20.8236 203.332 21.1764 203.008 21.6762ZM184.662 20.706C181.605 20.706 180.135 21.8232 180.135 25.7922C180.135 29.7907 181.605 30.9667 184.662 30.9667C187.749 30.9667 189.19 29.7907 189.19 25.7922C189.19 21.8232 187.72 20.706 184.662 20.706ZM184.662 29.4085C182.693 29.4085 182.046 28.7323 182.046 25.7922C182.046 22.7346 182.693 22.2054 184.662 22.2054C186.632 22.2054 187.279 22.7346 187.279 25.7922C187.279 28.7323 186.632 29.4085 184.662 29.4085ZM195.364 20.706C194.129 20.706 193.277 21.0588 192.777 21.4116V16.5605L190.954 17.3249V30.2317C192.013 30.6727 193.747 30.9667 195.07 30.9667C198.187 30.9667 199.598 29.8201 199.598 25.8216C199.568 21.8526 198.216 20.706 195.364 20.706ZM195.041 29.3791C194.247 29.3791 193.424 29.2615 192.748 29.0263V23.6166C192.748 22.9698 193.247 22.323 195.041 22.323C196.981 22.323 197.657 23.0286 197.657 25.8216C197.687 28.8499 197.04 29.3791 195.041 29.3791ZM211.476 20.559C210.123 20.559 208.918 20.9412 208.065 21.147L208.565 22.5288C209.359 22.2348 210.27 22.1172 211.27 22.1172C213.387 22.1172 213.828 22.7346 213.828 24.7632C212.916 24.5574 212.152 24.4692 211.24 24.4692C209.006 24.4692 207.418 24.9102 207.418 27.6739C207.418 30.2023 208.506 30.9373 211.446 30.9373C212.74 30.9373 214.445 30.6433 215.592 30.1729V24.4692C215.562 21.5292 214.327 20.559 211.476 20.559ZM213.798 29.0851C213.151 29.3203 212.328 29.4673 211.505 29.4673C209.77 29.4673 209.329 29.2321 209.329 27.5857C209.329 26.0863 209.888 25.9098 211.534 25.9098C212.358 25.9098 213.181 25.9686 213.798 26.1157V29.0851ZM221.266 24.9396C219.59 24.7926 219.061 24.4692 219.061 23.646C219.061 22.4406 219.796 22.2054 221.178 22.2054C222.148 22.2054 223.206 22.4406 223.971 22.7052C224.118 22.176 224.294 21.6762 224.441 21.2058C223.412 20.8824 222.177 20.6766 221.207 20.6766C218.708 20.6766 217.209 21.3822 217.209 23.793C217.209 25.7334 218.443 26.292 220.678 26.4684C222.471 26.6155 222.912 27.0271 222.912 27.8797C222.912 29.0557 222.236 29.3791 220.766 29.3791C219.796 29.3791 218.473 29.1439 217.767 28.8793L217.326 30.4081C218.267 30.7021 219.825 30.9373 220.825 30.9373C223.353 30.9373 224.765 30.2023 224.765 27.7915C224.765 25.9392 223.706 25.1748 221.266 24.9396Z" fill="#FAFAFA"/>
<path d="M122.156 23.205C122.156 23.205 122.185 23.205 122.185 23.1756C125.419 21.588 127.801 18.7655 129.094 14.5907L129.241 14.1497C129.241 14.1203 129.241 14.0909 129.241 14.0615C127.095 11.3567 125.361 7.97562 126.478 1.27235C126.507 1.09594 126.272 0.743141 125.772 1.00774C123.891 1.80155 122.362 3.09517 121.127 4.88859C118.834 11.1803 118.569 17.7071 122.068 23.1756C122.068 23.205 122.097 23.2344 122.156 23.205Z" fill="#FAFAFA"/>
<path d="M121.892 24.3808L121.804 24.2632C118.011 25.8802 113.366 26.086 108.309 24.7336C107.927 24.6454 107.809 24.9688 107.868 25.3804C108.426 27.0268 108.838 27.85 109.926 29.0848C118.305 33.9359 125.449 34.4651 130.594 31.4663C126.655 29.4964 123.803 27.0856 121.892 24.3808Z" fill="#FAFAFA"/>
<path d="M129.83 14.8257C128.507 19.1475 125.979 22.1758 122.598 23.881C122.568 23.9104 122.568 23.9398 122.568 23.9692C124.479 26.6446 127.331 29.026 131.359 30.9665C133.535 29.2906 135.005 26.3212 134.917 23.6164C134.828 20.0001 132.682 17.9127 129.83 14.8257Z" fill="#FAFAFA"/>
</svg>
