<svg xmlns="http://www.w3.org/2000/svg" fill="none" >
  <g fill="#303036" clipPath="url(#a)">
    <path d="M15 2h-.75v-.75a.75.75 0 1 0-1.5 0V2h-7.5v-.75a.75.75 0 0 0-1.5 0V2H3a3 3 0 0 0-3 3v10.5a3 3 0 0 0 3 3h12a3 3 0 0 0 3-3V5a3 3 0 0 0-3-3Zm1.5 13.5A1.5 1.5 0 0 1 15 17H3a1.5 1.5 0 0 1-1.5-1.5V5A1.5 1.5 0 0 1 3 3.5h.75v.75a.75.75 0 0 0 1.5 0V3.5h7.5v.75a.75.75 0 1 0 1.5 0V3.5H15A1.5 1.5 0 0 1 16.5 5v10.5Z" />
    <path d="M14.25 5.75H3.75a.75.75 0 0 0 0 1.5h10.5a.75.75 0 1 0 0-1.5ZM5.25 9.5h-1.5a.75.75 0 0 0 0 1.5h1.5a.75.75 0 1 0 0-1.5ZM5.25 13.25h-1.5a.75.75 0 1 0 0 1.5h1.5a.75.75 0 1 0 0-1.5ZM9.75 9.5h-1.5a.75.75 0 0 0 0 1.5h1.5a.75.75 0 1 0 0-1.5ZM9.75 13.25h-1.5a.75.75 0 1 0 0 1.5h1.5a.75.75 0 1 0 0-1.5ZM14.25 9.5h-1.5a.75.75 0 1 0 0 1.5h1.5a.75.75 0 1 0 0-1.5ZM14.25 13.25h-1.5a.75.75 0 1 0 0 1.5h1.5a.75.75 0 1 0 0-1.5Z" />
  </g>
  <defs>
    <clipPath id="a">
      <path fill="#fff" d="M0 .5h18v18H0z" />
    </clipPath>
  </defs>
</svg>
