<svg width="56" height="56" viewBox="0 0 56 56" fill="none" xmlns="http://www.w3.org/2000/svg">
<path fill-rule="evenodd" clip-rule="evenodd" d="M10.5 14C10.5 12.067 12.067 10.5 14 10.5H22.75C24.683 10.5 26.25 12.067 26.25 14V26.25C26.25 28.183 24.683 29.75 22.75 29.75H14C12.067 29.75 10.5 28.183 10.5 26.25V14ZM22.75 14H14V26.25H22.75V14ZM29.75 14C29.75 12.067 31.317 10.5 33.25 10.5H42C43.933 10.5 45.5 12.067 45.5 14V19.25C45.5 21.183 43.933 22.75 42 22.75H33.25C31.317 22.75 29.75 21.183 29.75 19.25V14ZM42 14H33.25V19.25H42V14ZM29.75 29.75C29.75 27.817 31.317 26.25 33.25 26.25H42C43.933 26.25 45.5 27.817 45.5 29.75V42C45.5 43.933 43.933 45.5 42 45.5H33.25C31.317 45.5 29.75 43.933 29.75 42V29.75ZM42 29.75H33.25V42H42V29.75ZM10.5 36.75C10.5 34.817 12.067 33.25 14 33.25H22.75C24.683 33.25 26.25 34.817 26.25 36.75V42C26.25 43.933 24.683 45.5 22.75 45.5H14C12.067 45.5 10.5 43.933 10.5 42V36.75ZM22.75 36.75H14V42H22.75V36.75Z" fill="#0088CC"/>
</svg>
