<svg xmlns="http://www.w3.org/2000/svg" fill="none">
    <g fill="#303036" fillRule="evenodd" clipRule="evenodd">
      <path d="m8.333.5 2.59 8.82 3.955 9.18H0v-.535h1.83L5.818 9.32 8.333.5ZM2.418 17.965h11.649l-3.648-8.462L8.34 2.42 6.32 9.505l-3.902 8.46Z" />
      <path d="m7.586 4.74 2.701 2.56-3.822 2.791 5.849 2.619a.267.267 0 0 1-.002.488l-9.604 4.21-.214-.49 9.051-3.967-6.139-2.748 4.048-2.956L7.22 5.129l.366-.388Z" />
      <path d="m9.087 4.74-2.7 2.56 3.821 2.791L4.36 12.71a.267.267 0 0 0 .002.488l9.603 4.21.214-.49-9.05-3.967 6.138-2.748-4.048-2.956 2.235-2.118-.367-.388ZM4.203 3.53l-.001-1.402a.4.4 0 1 0-.8 0v1.403h.8ZM3.8 1.327a.8.8 0 0 0-.8.802l.002 1.803 1.6-.001L4.6 2.128a.8.8 0 0 0-.8-.801Z" />
      <path d="M4.502 3.13h-1.4v-.4l1.4-.001v.4ZM6.47 3.53V2.128a.4.4 0 1 0-.8 0v1.403h.8ZM6.07 1.327a.8.8 0 0 0-.8.802l.002 1.803 1.6-.001-.002-1.803a.8.8 0 0 0-.8-.801Z" />
      <path d="M6.77 3.13h-1.4v-.4l1.4-.001v.4ZM5.27 7.673l-.001-1.402a.4.4 0 1 0-.8 0v1.403h.8ZM4.868 5.47a.8.8 0 0 0-.8.802l.002 1.803 1.6-.001-.002-1.803a.8.8 0 0 0-.8-.801Z" />
      <path d="m5.57 7.272-1.4.002v-.401l1.399-.001v.4ZM3.002 7.673l-.001-1.402a.4.4 0 1 0-.8 0l.001 1.403h.8ZM2.601 5.47a.8.8 0 0 0-.8.802l.002 1.803 1.6-.001L3.4 6.27a.8.8 0 0 0-.8-.801Z" />
      <path d="m3.302 7.272-1.4.002v-.401l1.4-.001v.4ZM12.605 3.53l.001-1.402a.4.4 0 1 1 .8 0l-.001 1.403h-.8Zm.402-2.203a.8.8 0 0 1 .799.802l-.002 1.803-1.6-.001.002-1.803a.8.8 0 0 1 .8-.801Z" />
      <path d="M12.306 3.13h1.4v-.4l-1.4-.001v.4ZM10.338 3.53V2.128a.4.4 0 1 1 .8 0v1.403h-.8Zm.401-2.203a.8.8 0 0 1 .8.802l-.002 1.803-1.6-.001.002-1.803a.8.8 0 0 1 .8-.801Z" />
      <path d="M10.038 3.13h1.4v-.4l-1.4-.001v.4ZM11.538 7.673l.001-1.402a.4.4 0 1 1 .8 0l-.001 1.403h-.8Zm.402-2.203a.8.8 0 0 1 .799.802l-.002 1.803-1.6-.001.002-1.803a.8.8 0 0 1 .8-.801Z" />
      <path d="m11.238 7.272 1.4.002v-.401l-1.4-.001v.4ZM13.806 7.673V6.271a.4.4 0 1 1 .8 0v1.403h-.8Zm.401-2.203a.8.8 0 0 1 .8.802l-.002 1.803-1.6-.001.002-1.803a.8.8 0 0 1 .8-.801Z" />
      <path d="m13.506 7.272 1.4.002v-.401l-1.4-.001v.4ZM7.536 4.801c0 .148-.12.267-.266.267H2.868a.267.267 0 0 1 0-.534H7.27c.147 0 .266.12.266.267ZM9.404 4.801c0 .148.12.267.267.267h4.401a.267.267 0 0 0 0-.534H9.671a.267.267 0 0 0-.267.267ZM6.202 9.078c0 .147-.119.267-.266.267H1.934a.267.267 0 0 1 0-.534h4.002c.147 0 .266.12.266.267ZM10.738 9.078c0 .147.119.267.266.267h4.002a.267.267 0 0 0 0-.534h-4.002a.267.267 0 0 0-.266.267Z" />
      <path d="M3.535 5.068v-1.47h.533v1.47h-.533ZM10.47 5.068v-1.47h.534v1.47h-.533ZM2.334 9.211v-1.47h.534v1.47h-.534ZM11.671 9.211v-1.47h.534v1.47h-.534ZM5.802 5.068v-1.47h.534v1.47h-.534ZM12.738 5.068v-1.47h.534v1.47h-.534ZM4.602 9.211v-1.47h.533v1.47h-.533ZM13.939 9.211v-1.47h.533v1.47h-.533Z" />
    </g>
  </svg>

