<svg width="18" height="18" viewBox="0 0 18 18" fill="none" xmlns="http://www.w3.org/2000/svg">
<path d="M7.84774 11.811L9.52474 9.945C9.61946 9.83866 9.75098 9.77221 9.89277 9.75904C10.0346 9.74587 10.1761 9.78697 10.2887 9.87405C10.4014 9.96113 10.4769 10.0877 10.4999 10.2282C10.5229 10.3688 10.4918 10.5128 10.4127 10.6313L10.3617 10.6972L9.52849 11.6242H11.2355C11.3349 11.6241 11.4326 11.6504 11.5186 11.7004C11.6046 11.7503 11.6758 11.8222 11.725 11.9086C11.7742 11.9951 11.7995 12.093 11.7985 12.1925C11.7975 12.2919 11.7702 12.3893 11.7192 12.4747L11.6757 12.5377L9.26674 15.561C9.17839 15.6724 9.05113 15.7462 8.91057 15.7675C8.77 15.7889 8.62657 15.7562 8.50911 15.6761C8.39165 15.596 8.30889 15.4744 8.27746 15.3357C8.24604 15.1971 8.2683 15.0517 8.33974 14.9288L8.38699 14.8605L10.0685 12.7493H8.26624C8.16426 12.7493 8.06419 12.7216 7.97673 12.6692C7.88927 12.6167 7.81772 12.5415 7.76972 12.4515C7.72172 12.3615 7.69909 12.2602 7.70425 12.1583C7.70941 12.0565 7.74216 11.9579 7.799 11.8733L7.84774 11.811ZM9.75124 3.756C12.1272 3.756 13.4757 5.3295 13.6715 7.22925H13.7315C14.0947 7.22876 14.4544 7.29982 14.7902 7.43838C15.1259 7.57694 15.431 7.78028 15.6882 8.03679C15.9453 8.29329 16.1494 8.59795 16.2888 8.93334C16.4282 9.26873 16.5001 9.6283 16.5005 9.9915C16.5 10.3546 16.428 10.7141 16.2886 11.0494C16.1491 11.3847 15.945 11.6893 15.6879 11.9457C15.4308 12.2022 15.1257 12.4054 14.79 12.5439C14.4543 12.6825 14.0946 12.7535 13.7315 12.753L12.3905 12.7537C12.5035 12.5878 12.5637 12.3917 12.5635 12.191C12.5632 11.9903 12.5024 11.7944 12.389 11.6287L13.6895 11.6302C14.6352 11.6302 15.4017 10.8788 15.4017 9.9525C15.4017 9.02625 14.6352 8.2755 13.6895 8.2755H13.172C12.8975 8.2755 12.6582 8.0655 12.6582 7.797C12.6582 6.08325 11.3045 4.8795 9.75124 4.8795C8.19724 4.8795 6.84349 6.105 6.84349 7.797C6.84349 8.06475 6.60424 8.2755 6.33049 8.2755H5.81299C4.86649 8.2755 4.09999 9.0255 4.09999 9.9525C4.09999 10.8788 4.86649 11.6302 5.81224 11.6302L7.13374 11.6295C7.02034 11.7951 6.95953 11.9911 6.95927 12.1918C6.959 12.3925 7.01928 12.5886 7.13224 12.7545L5.77024 12.753C5.40711 12.7535 5.04743 12.6825 4.71174 12.5439C4.37606 12.4054 4.07094 12.2022 3.81382 11.9457C3.55669 11.6893 3.35259 11.3847 3.21317 11.0494C3.07375 10.7141 3.00174 10.3546 3.00124 9.9915C3.00164 9.6283 3.07358 9.26873 3.21296 8.93334C3.35233 8.59795 3.55642 8.29329 3.81355 8.03679C4.07069 7.78028 4.37584 7.57694 4.71157 7.43838C5.0473 7.29982 5.40704 7.22876 5.77024 7.22925H5.83024C6.02749 5.31675 7.37524 3.756 9.75124 3.756ZM7.49974 1.5C8.71249 1.5 9.78724 2.11125 10.4247 3.0465C10.2012 3.02063 9.97631 3.00736 9.75124 3.00675C9.45474 3.00675 9.16999 3.028 8.89699 3.0705C8.56506 2.83524 8.17907 2.68765 7.77485 2.64143C7.37062 2.59521 6.96128 2.65187 6.58481 2.80614C6.20833 2.96041 5.87694 3.20729 5.62138 3.52387C5.36583 3.84045 5.19439 4.21646 5.12299 4.617L5.06824 4.9275C5.03772 5.10126 4.94692 5.2587 4.81181 5.37214C4.6767 5.48558 4.50592 5.54776 4.32949 5.54775H3.96199C3.69773 5.54747 3.43931 5.62554 3.2194 5.7721C2.99949 5.91866 2.82797 6.12712 2.72651 6.37113C2.62505 6.61515 2.59821 6.88377 2.64938 7.14303C2.70055 7.4023 2.82743 7.64058 3.01399 7.82775C2.77774 8.12775 2.59024 8.469 2.46274 8.838C2.06402 8.53219 1.76844 8.11168 1.61572 7.63296C1.46299 7.15424 1.46044 6.64024 1.60839 6.16003C1.75635 5.67981 2.04774 5.25639 2.4434 4.94663C2.83907 4.63687 3.32005 4.45563 3.82174 4.42725L4.01449 4.42275C4.15952 3.60376 4.58829 2.86198 5.22558 2.32754C5.86288 1.7931 6.66801 1.50012 7.49974 1.5Z" fill="#303036"/>
</svg>
