<svg width="18" height="19" viewBox="0 0 18 19" fill="none" xmlns="http://www.w3.org/2000/svg">
<path d="M17.25 3.49993V7.99993M17.25 7.99993H12.75M17.25 7.99993L13.77 4.72993C12.9639 3.92347 11.9667 3.33434 10.8714 3.01751C9.77607 2.70069 8.61833 2.6665 7.50621 2.91813C6.3941 3.16976 5.36385 3.69901 4.5116 4.4565C3.65935 5.21399 3.01288 6.17502 2.6325 7.24993M0.75 15.4999V10.9999M0.75 10.9999H5.25M0.75 10.9999L4.23 14.2699C5.03606 15.0764 6.03328 15.6655 7.12861 15.9824C8.22393 16.2992 9.38167 16.3334 10.4938 16.0817C11.6059 15.8301 12.6361 15.3009 13.4884 14.5434C14.3407 13.7859 14.9871 12.8248 15.3675 11.7499" stroke="#303036" stroke-width="1.5" stroke-linecap="round" stroke-linejoin="round"/>
</svg>
