<svg width="38" height="38" viewBox="0 0 38 38" fill="none" xmlns="http://www.w3.org/2000/svg">
<path d="M19.0001 25.2222V32.9999" stroke="#0088CC" stroke-width="3.11111" stroke-linecap="round" stroke-linejoin="round"/>
<path d="M25.2223 22.1113V33.0002" stroke="#0088CC" stroke-width="3.11111" stroke-linecap="round" stroke-linejoin="round"/>
<path d="M31.4446 15.8892V33.0003" stroke="#0088CC" stroke-width="3.11111" stroke-linecap="round" stroke-linejoin="round"/>
<path d="M34.5557 5L21.1064 18.4493C21.0341 18.5218 20.9483 18.5792 20.8538 18.6184C20.7593 18.6577 20.658 18.6778 20.5557 18.6778C20.4534 18.6778 20.3521 18.6577 20.2576 18.6184C20.1631 18.5792 20.0773 18.5218 20.005 18.4493L14.8841 13.3284C14.7383 13.1826 14.5405 13.1007 14.3342 13.1007C14.128 13.1007 13.9302 13.1826 13.7844 13.3284L3.44458 23.6667" stroke="#0088CC" stroke-width="3.11111" stroke-linecap="round" stroke-linejoin="round"/>
<path d="M6.55566 28.3335V33.0002" stroke="#0088CC" stroke-width="3.11111" stroke-linecap="round" stroke-linejoin="round"/>
<path d="M12.778 22.1113V33.0002" stroke="#0088CC" stroke-width="3.11111" stroke-linecap="round" stroke-linejoin="round"/>
</svg>
