<svg width="42" height="38" viewBox="0 0 42 38" fill="none" xmlns="http://www.w3.org/2000/svg">
<path fill-rule="evenodd" clip-rule="evenodd" d="M14.8232 0.333008C15.4618 0.333008 15.9795 0.850679 15.9795 1.48926V3.80176C15.9795 4.44034 15.4618 4.95801 14.8232 4.95801C14.1847 4.95801 13.667 4.44034 13.667 3.80176V1.48926C13.667 0.850679 14.1847 0.333008 14.8232 0.333008Z" fill="#0088CC"/>
<path fill-rule="evenodd" clip-rule="evenodd" d="M5.15116 3.84305C5.63912 3.43114 6.36862 3.49278 6.78053 3.98075L8.28366 5.76137C8.69558 6.24933 8.63393 6.97883 8.14596 7.39075C7.658 7.80266 6.9285 7.74102 6.51659 7.25305L5.01346 5.47243C4.60155 4.98447 4.66319 4.25497 5.15116 3.84305Z" fill="#0088CC"/>
<path fill-rule="evenodd" clip-rule="evenodd" d="M0.0168663 12.7635C0.12494 12.1341 0.722754 11.7115 1.35212 11.8196L3.6415 12.2127C4.27086 12.3208 4.69346 12.9186 4.58538 13.548C4.47731 14.1773 3.8795 14.5999 3.25013 14.4919L0.960753 14.0987C0.331386 13.9907 -0.091207 13.3929 0.0168663 12.7635Z" fill="#0088CC"/>
<path fill-rule="evenodd" clip-rule="evenodd" d="M5.81265 20.5696C6.13084 21.1232 5.93996 21.83 5.38631 22.1482L3.37443 23.3044C2.82077 23.6226 2.114 23.4318 1.79581 22.8781C1.47761 22.3244 1.66849 21.6177 2.22215 21.2995L4.23402 20.1432C4.78768 19.825 5.49446 20.0159 5.81265 20.5696Z" fill="#0088CC"/>
<path fill-rule="evenodd" clip-rule="evenodd" d="M24.4953 3.84305C24.9833 4.25497 25.0449 4.98447 24.633 5.47243L23.1299 7.25305C22.718 7.74102 21.9885 7.80266 21.5005 7.39075C21.0126 6.97883 20.9509 6.24933 21.3628 5.76137L22.866 3.98075C23.2779 3.49278 24.0074 3.43114 24.4953 3.84305Z" fill="#0088CC"/>
<path fill-rule="evenodd" clip-rule="evenodd" d="M16.1362 8.58863C15.1826 8.41015 14.2021 8.43366 13.2582 8.65763C12.3143 8.88161 11.4278 9.30108 10.656 9.88895C9.88429 10.4768 9.24441 11.22 8.77774 12.0706C8.31107 12.9211 8.02797 13.86 7.94673 14.8268C7.86549 15.7935 7.98792 16.7666 8.3061 17.683C8.62429 18.5995 9.13116 19.4391 9.79398 20.1475C10.2303 20.6138 10.2059 21.3455 9.73963 21.7818C9.27333 22.2181 8.54164 22.1938 8.10535 21.7274C7.22159 20.7829 6.54576 19.6635 6.12152 18.4415C5.69727 17.2195 5.53403 15.9221 5.64235 14.6331C5.75067 13.3441 6.12813 12.0922 6.75036 10.9582C7.3726 9.82412 8.22576 8.83319 9.25477 8.04936C10.2838 7.26554 11.4657 6.70625 12.7243 6.40761C13.9829 6.10897 15.2901 6.07762 16.5616 6.3156C17.833 6.55357 19.0405 7.05556 20.1058 7.78917C21.165 8.51845 22.0603 9.4605 22.7348 10.5551L22.908 10.8149C23.2622 11.3462 23.1186 12.0641 22.5873 12.4183C22.056 12.7725 21.3381 12.6289 20.9839 12.0976L20.7989 11.8201C20.7907 11.8078 20.7827 11.7954 20.7751 11.7829C20.2681 10.9557 19.5934 10.244 18.7943 9.69381C17.9953 9.1436 17.0897 8.7671 16.1362 8.58863Z" fill="#0088CC"/>
<path fill-rule="evenodd" clip-rule="evenodd" d="M25.0922 9.52886C27.3674 9.46639 29.585 10.2492 31.3169 11.726C32.8033 12.9936 33.8414 14.6953 34.2939 16.5788C36.0829 16.7949 37.7591 17.6038 39.0464 18.8911C40.5643 20.4089 41.417 22.4676 41.417 24.6142C41.417 26.7608 40.5643 28.8195 39.0464 30.3374C37.5285 31.8552 35.4698 32.708 33.3232 32.708C32.6847 32.708 32.167 32.1903 32.167 31.5517C32.167 30.9131 32.6847 30.3955 33.3232 30.3955C34.8565 30.3955 36.327 29.7864 37.4112 28.7022C38.4954 27.618 39.1045 26.1475 39.1045 24.6142C39.1045 23.0809 38.4954 21.6104 37.4112 20.5262C36.327 19.4421 34.8565 18.833 33.3232 18.833C32.7431 18.833 32.2528 18.4031 32.1769 17.8279C31.9541 16.1384 31.1131 14.5914 29.8164 13.4856C28.5197 12.3798 26.8592 11.7937 25.1557 11.8405C23.4522 11.8873 21.8264 12.5636 20.5924 13.7388C19.3583 14.9141 18.6035 16.505 18.4736 18.2042C18.4459 18.5674 18.2486 18.8963 17.9412 19.0918C17.6338 19.2872 17.2523 19.3264 16.9115 19.1975C16.2496 18.947 15.5465 18.8233 14.8388 18.8329L14.8232 18.833C13.29 18.833 11.8195 19.4421 10.7353 20.5262C9.65109 21.6104 9.04199 23.0809 9.04199 24.6142C9.04199 26.1475 9.65109 27.618 10.7353 28.7022C11.8195 29.7864 13.29 30.3955 14.8232 30.3955C15.4618 30.3955 15.9795 30.9131 15.9795 31.5517C15.9795 32.1903 15.4618 32.708 14.8232 32.708C12.6766 32.708 10.618 31.8552 9.1001 30.3374C7.58222 28.8195 6.72949 26.7608 6.72949 24.6142C6.72949 22.4676 7.58222 20.4089 9.1001 18.8911C10.6161 17.375 12.6717 16.5225 14.8155 16.5205C15.3405 16.5139 15.8638 16.5594 16.3777 16.6555C16.781 14.9117 17.6869 13.3125 18.9976 12.0643C20.6457 10.4946 22.8171 9.59133 25.0922 9.52886Z" fill="#0088CC"/>
<path fill-rule="evenodd" clip-rule="evenodd" d="M32.167 22.3018C32.167 21.6632 32.6847 21.1455 33.3232 21.1455C34.2432 21.1455 35.1255 21.511 35.776 22.1615C36.4265 22.812 36.792 23.6943 36.792 24.6143C36.792 25.5342 36.4265 26.4165 35.776 27.067C35.1255 27.7176 34.2432 28.083 33.3232 28.083H14.8232C14.1847 28.083 13.667 27.5653 13.667 26.9268C13.667 26.2882 14.1847 25.7705 14.8232 25.7705H33.3232C33.6299 25.7705 33.924 25.6487 34.1408 25.4318C34.3577 25.215 34.4795 24.9209 34.4795 24.6143C34.4795 24.3076 34.3577 24.0135 34.1408 23.7967C33.924 23.5798 33.6299 23.458 33.3232 23.458C32.6847 23.458 32.167 22.9403 32.167 22.3018Z" fill="#0088CC"/>
<path fill-rule="evenodd" clip-rule="evenodd" d="M18.292 31.5518C18.292 30.9132 18.8097 30.3955 19.4482 30.3955H26.3857C27.3057 30.3955 28.188 30.761 28.8385 31.4115C29.489 32.062 29.8545 32.9443 29.8545 33.8643C29.8545 34.7842 29.489 35.6665 28.8385 36.317C28.188 36.9676 27.3057 37.333 26.3857 37.333C25.7472 37.333 25.2295 36.8153 25.2295 36.1768C25.2295 35.5382 25.7472 35.0205 26.3857 35.0205C26.6924 35.0205 26.9865 34.8987 27.2033 34.6819C27.4202 34.465 27.542 34.1709 27.542 33.8643C27.542 33.5576 27.4202 33.2635 27.2033 33.0467C26.9865 32.8298 26.6924 32.708 26.3857 32.708H19.4482C18.8097 32.708 18.292 32.1903 18.292 31.5518Z" fill="#0088CC"/>
</svg>
