<svg xmlns="http://www.w3.org/2000/svg" fill="none" >
    <g clipPath="url(#a)">
      <path
        fill="#303036"
        d="M2.272 2.04 15.67.657a.442.442 0 0 1 .486.438v16.809a.442.442 0 0 1-.441.442H2.285a.442.442 0 0 1-.442-.442V2.482c0-.24.19-.435.429-.442Zm5.48 3.31v1.715h2.495V5.35H7.753Zm-.884 1.715V5.35H4.785v1.715h2.083Zm.885 2.357v1.715h2.494V9.422H7.753Zm-.885 1.715V9.422H4.785v1.715h2.083Zm4.264-5.787v1.715h2.082V5.35h-2.082Zm0 4.072v1.715h2.082V9.422h-2.082ZM4.343 4.465h9.314c.244 0 .442.198.442.443v2.599a.442.442 0 0 1-.442.442H4.343a.442.442 0 0 1-.442-.442v-2.6c0-.244.198-.442.442-.442Zm0 4.072h9.314c.244 0 .442.198.442.443v2.599a.442.442 0 0 1-.442.442H4.343a.442.442 0 0 1-.442-.442v-2.6c0-.244.198-.442.442-.442Zm5.6 8.924v-3.274H8.057v3.274h1.888Zm-2.772 0v-3.716c0-.244.199-.442.443-.442h2.772c.244 0 .443.198.443.442v3.716h4.443V1.584L2.728 2.88V17.46H7.17Z"
      />
    </g>
    <defs>
      <clipPath id="a">
        <path fill="#fff" d="M0 .5h18v18H0z" />
      </clipPath>
    </defs>
  </svg>

