<svg width="25" height="25" viewBox="0 0 25 25" fill="none" xmlns="http://www.w3.org/2000/svg">
<path fill-rule="evenodd" clip-rule="evenodd" d="M12.2344 22.3187C17.6568 22.3187 22.0526 17.9229 22.0526 12.5005C22.0526 7.07806 17.6568 2.68231 12.2344 2.68231C6.81194 2.68231 2.41619 7.07806 2.41619 12.5005C2.41619 17.9229 6.81194 22.3187 12.2344 22.3187ZM12.2344 24.5005C18.8618 24.5005 24.2344 19.1279 24.2344 12.5005C24.2344 5.87307 18.8618 0.500488 12.2344 0.500488C5.60696 0.500488 0.234375 5.87307 0.234375 12.5005C0.234375 19.1279 5.60696 24.5005 12.2344 24.5005Z" fill="#FAFAFA"/>
<path d="M10.8633 13.8478H6.34375V10.6787H10.8633V6.17322H14.0041V10.6787H18.5619V13.8478H14.0041V18.3914H10.8633V13.8478Z" fill="#FAFAFA"/>
</svg>
