<svg width="23" height="23" viewBox="0 0 23 23" fill="none" xmlns="http://www.w3.org/2000/svg">
<path fill-rule="evenodd" clip-rule="evenodd" d="M11.2344 0.500488C11.8419 0.500488 12.3344 0.992975 12.3344 1.60049V12.1449L15.9566 8.52267C16.3861 8.09309 17.0826 8.09309 17.5122 8.52267C17.9418 8.95225 17.9418 9.64873 17.5122 10.0783L12.0122 15.5783C11.5826 16.0079 10.8861 16.0079 10.4566 15.5783L4.95656 10.0783C4.52698 9.64873 4.52698 8.95225 4.95656 8.52267C5.38613 8.09309 6.08262 8.09309 6.51219 8.52267L10.1344 12.1449V1.60049C10.1344 0.992975 10.6269 0.500488 11.2344 0.500488ZM1.33438 13.7005C1.94189 13.7005 2.43438 14.193 2.43438 14.8005V19.2005C2.43438 19.4922 2.55027 19.772 2.75656 19.9783C2.96285 20.1846 3.24264 20.3005 3.53438 20.3005H18.9344C19.2261 20.3005 19.5059 20.1846 19.7122 19.9783C19.9185 19.772 20.0344 19.4922 20.0344 19.2005V14.8005C20.0344 14.193 20.5269 13.7005 21.1344 13.7005C21.7419 13.7005 22.2344 14.193 22.2344 14.8005V19.2005C22.2344 20.0757 21.8867 20.9151 21.2678 21.5339C20.649 22.1528 19.8096 22.5005 18.9344 22.5005H3.53438C2.65916 22.5005 1.81979 22.1528 1.20092 21.5339C0.582053 20.9151 0.234375 20.0757 0.234375 19.2005V14.8005C0.234375 14.193 0.726862 13.7005 1.33438 13.7005Z" fill="#FAFAFA"/>
</svg>
