<svg width="23" height="25" viewBox="0 0 23 25" fill="none" xmlns="http://www.w3.org/2000/svg">
<path fill-rule="evenodd" clip-rule="evenodd" d="M17.8344 2.60051C16.6193 2.60051 15.6344 3.58549 15.6344 4.80051C15.6344 5.18255 15.7318 5.54184 15.903 5.85492C15.9142 5.8719 15.925 5.88929 15.9354 5.90708C15.9457 5.92474 15.9555 5.94257 15.9647 5.96054C16.3529 6.58488 17.0451 7.00051 17.8344 7.00051C19.0494 7.00051 20.0344 6.01554 20.0344 4.80051C20.0344 3.58549 19.0494 2.60051 17.8344 2.60051ZM14.7082 7.89685C15.5056 8.70186 16.6118 9.20051 17.8344 9.20051C20.2644 9.20051 22.2344 7.23057 22.2344 4.80051C22.2344 2.37046 20.2644 0.400513 17.8344 0.400513C15.4043 0.400513 13.4344 2.37046 13.4344 4.80051C13.4344 5.21523 13.4918 5.61655 13.599 5.99696L7.76051 9.40418C6.96312 8.59916 5.85698 8.10051 4.63438 8.10051C2.20432 8.10051 0.234375 10.0705 0.234375 12.5005C0.234375 14.9306 2.20432 16.9005 4.63438 16.9005C5.85721 16.9005 6.96353 16.4017 7.76095 15.5964L13.6004 18.9992C13.4922 19.381 13.4344 19.784 13.4344 20.2005C13.4344 22.6306 15.4043 24.6005 17.8344 24.6005C20.2644 24.6005 22.2344 22.6306 22.2344 20.2005C22.2344 17.7705 20.2644 15.8005 17.8344 15.8005C16.6136 15.8005 15.5089 16.2977 14.7118 17.1006L8.86992 13.6964C8.97706 13.3161 9.03438 12.915 9.03438 12.5005C9.03438 12.0858 8.977 11.6845 8.86975 11.3041L14.7082 7.89685ZM6.50404 11.3405C6.51326 11.3585 6.52302 11.3763 6.53332 11.3939C6.5437 11.4117 6.5545 11.4291 6.56571 11.4461C6.737 11.7592 6.83438 12.1185 6.83438 12.5005C6.83438 12.8825 6.737 13.2418 6.56571 13.5549C6.55438 13.5721 6.54346 13.5897 6.53297 13.6077C6.52279 13.6251 6.51315 13.6428 6.50405 13.6605C6.11586 14.2849 5.42365 14.7005 4.63438 14.7005C3.41935 14.7005 2.43438 13.7155 2.43438 12.5005C2.43438 11.2855 3.41935 10.3005 4.63438 10.3005C5.42365 10.3005 6.11585 10.7161 6.50404 11.3405ZM15.8712 19.2066C15.8983 19.1709 15.9236 19.1331 15.9468 19.0933C15.969 19.0552 15.9887 19.0163 16.0058 18.9768C16.4006 18.3881 17.0722 18.0005 17.8344 18.0005C19.0494 18.0005 20.0344 18.9855 20.0344 20.2005C20.0344 21.4155 19.0494 22.4005 17.8344 22.4005C16.6193 22.4005 15.6344 21.4155 15.6344 20.2005C15.6344 19.8429 15.7197 19.5051 15.8712 19.2066Z" fill="#FAFAFA"/>
</svg>
