<svg width="37" height="37" viewBox="0 0 37 37" fill="none" xmlns="http://www.w3.org/2000/svg">
<rect x="1.05809" y="0.713727" width="34.9301" height="34.9301" rx="17.465" fill="#FAFAFA"/>
<rect x="1.05809" y="0.713727" width="34.9301" height="34.9301" rx="17.465" stroke="#8DA3AE" stroke-width="0.944056"/>
<path d="M25.8846 23.4746L20.5889 18.1788L25.8846 12.8831C26.4564 12.3114 26.4564 11.3909 25.8846 10.8192C25.3129 10.2474 24.3924 10.2474 23.8207 10.8192L18.525 16.1149L13.2293 10.8192C12.6575 10.2474 11.7371 10.2474 11.1653 10.8192C10.5936 11.3909 10.5936 12.3114 11.1653 12.8831L16.461 18.1788L11.1653 23.4746C10.5936 24.0463 10.5936 24.9668 11.1653 25.5385C11.7371 26.1102 12.6575 26.1102 13.2293 25.5385L18.525 20.2428L23.8207 25.5385C24.3924 26.1102 25.3129 26.1102 25.8846 25.5385C26.4523 24.9668 26.4523 24.0422 25.8846 23.4746Z" fill="#637883"/>
</svg>
