<svg width="1140" height="44" viewBox="0 0 1140 44" fill="none" xmlns="http://www.w3.org/2000/svg">
<path d="M162.723 30.6919L172.131 30.6919L172.131 29.016L164.664 29.016L164.664 24.4296L169.985 24.4296L169.985 22.7832L164.664 22.7832L164.664 19.0199L172.131 19.0199L172.131 17.3441L162.723 17.3441L162.723 30.6919ZM175.777 26.3406L175.777 16.6091L173.983 17.3441L173.983 26.7522C173.983 28.428 174.424 30.2509 176.306 31.1035L177.276 29.7805C176.1 29.1336 175.748 28.2222 175.777 26.3406ZM182.774 20.7252C179.922 20.7252 178.335 21.96 178.335 25.8114C178.335 29.8099 180.069 30.9859 182.951 30.9859C183.862 30.9859 185.273 30.7507 186.243 30.4567L185.92 28.9572C185.126 29.2218 183.862 29.4276 183.156 29.4276C181.187 29.4276 180.275 28.8984 180.275 26.2524L186.92 26.2524L186.92 25.782C186.89 21.7248 185.597 20.7252 182.774 20.7252ZM180.275 24.753C180.422 22.8126 181.04 22.254 182.804 22.254C184.362 22.254 184.92 22.695 185.009 24.753L180.275 24.753ZM191.977 29.3689C190.742 29.3689 190.359 28.7514 190.359 27.3402L190.359 22.6068L193.77 22.6068L193.77 20.9898L190.359 20.9898L190.359 18.4025L188.537 19.1375L188.537 27.4284C188.537 30.3097 189.507 30.9565 191.712 30.9565C192.506 30.9565 193.505 30.7507 194.093 30.5449L193.741 29.0454C193.241 29.2512 192.653 29.3689 191.977 29.3689ZM197.18 21.6954L197.18 20.9898L195.358 20.9898L195.358 30.7213L197.18 30.7213L197.18 23.6358C197.18 22.9008 198.356 22.4598 199.65 22.4598C200.062 22.4598 200.444 22.4892 200.767 22.548L200.767 20.9016C200.444 20.8722 200.091 20.8428 199.768 20.8428C198.386 20.8428 197.504 21.1956 197.18 21.6954ZM224.435 21.6954L224.435 20.9898L222.612 20.9898L222.612 30.7213L224.435 30.7213L224.435 23.6358C224.435 22.9008 225.611 22.4598 226.904 22.4598C227.316 22.4598 227.698 22.4892 228.021 22.548L228.021 20.9016C227.698 20.8722 227.345 20.8428 227.022 20.8428C225.64 20.8428 224.758 21.1956 224.435 21.6954ZM206.089 20.7252C203.031 20.7252 201.561 21.8424 201.561 25.8114C201.561 29.8099 203.031 30.9859 206.089 30.9859C209.176 30.9859 210.616 29.8099 210.616 25.8114C210.616 21.8424 209.146 20.7252 206.089 20.7252ZM206.089 29.4276C204.119 29.4276 203.472 28.7514 203.472 25.8114C203.472 22.7538 204.119 22.2246 206.089 22.2246C208.059 22.2246 208.705 22.7538 208.705 25.8114C208.705 28.7514 208.059 29.4276 206.089 29.4276ZM216.79 20.7252C215.556 20.7252 214.703 21.078 214.203 21.4308L214.203 16.5797L212.38 17.3441L212.38 30.2509C213.439 30.6919 215.173 30.9859 216.496 30.9859C219.613 30.9859 221.024 29.8393 221.024 25.8408C220.995 21.8718 219.642 20.7252 216.79 20.7252ZM216.467 29.3982C215.673 29.3982 214.85 29.2806 214.174 29.0454L214.174 23.6358C214.174 22.989 214.674 22.3422 216.467 22.3422C218.407 22.3422 219.084 23.0478 219.084 25.8408C219.113 28.869 218.466 29.3982 216.467 29.3982ZM232.902 20.5781C231.549 20.5781 230.344 20.9604 229.491 21.1662L229.991 22.548C230.785 22.254 231.696 22.1364 232.696 22.1364C234.813 22.1364 235.254 22.7538 235.254 24.7824C234.342 24.5766 233.578 24.4884 232.667 24.4884C230.432 24.4884 228.845 24.9294 228.845 27.693C228.845 30.2215 229.932 30.9565 232.872 30.9565C234.166 30.9565 235.871 30.6625 237.018 30.1921L237.018 24.4884C236.988 21.5484 235.754 20.5781 232.902 20.5781ZM235.224 29.1042C234.578 29.3394 233.754 29.4865 232.931 29.4865C231.197 29.4865 230.756 29.2513 230.756 27.6048C230.756 26.1054 231.314 25.929 232.961 25.929C233.784 25.929 234.607 25.9878 235.224 26.1348L235.224 29.1042ZM242.692 24.9588C241.016 24.8118 240.487 24.4884 240.487 23.6652C240.487 22.4598 241.222 22.2246 242.604 22.2246C243.574 22.2246 244.633 22.4598 245.397 22.7244C245.544 22.1952 245.72 21.6954 245.867 21.225C244.838 20.9016 243.604 20.6958 242.633 20.6958C240.134 20.6958 238.635 21.4014 238.635 23.8122C238.635 25.7526 239.87 26.3112 242.104 26.4876C243.898 26.6346 244.339 27.0462 244.339 27.8988C244.339 29.0748 243.662 29.3982 242.192 29.3982C241.222 29.3982 239.899 29.163 239.193 28.8984L238.752 30.4273C239.693 30.7213 241.252 30.9565 242.251 30.9565C244.78 30.9565 246.191 30.2215 246.191 27.8106C246.191 25.9584 245.132 25.194 242.692 24.9588Z" fill="#007AC2"/>
<path d="M143.965 23.9295C139.967 18.3141 140.143 11.4932 142.524 4.90751C143.759 3.11409 145.288 1.82047 147.17 1.02667C147.67 0.762062 147.905 1.11486 147.875 1.29127C146.641 8.61195 148.816 11.993 151.256 14.8448C149.933 19.2255 147.376 22.2243 143.965 23.9295Z" fill="#CBDB2A"/>
<path d="M152.785 30.9853C147.611 34.5427 140.143 34.2193 131.352 29.1036C130.264 27.8688 129.853 27.0456 129.294 25.3992C129.235 24.9876 129.353 24.6642 129.735 24.7524C135.145 26.1636 140.025 25.8696 143.965 23.9292C145.876 26.6046 148.757 29.0155 152.785 30.9853Z" fill="#007AC2"/>
<path d="M152.785 30.9856C154.961 29.3098 156.431 26.3404 156.342 23.6356C156.254 20.0193 154.079 17.9319 151.256 14.8743C149.933 19.2255 147.375 22.2537 143.936 23.959C145.876 26.605 148.757 29.0158 152.785 30.9856Z" fill="#00A84F"/>
<path d="M102.675 21.8012L97.0234 21.8012C96.9937 21.4529 96.8713 21.1528 96.6563 20.9008C96.4412 20.6489 96.1631 20.4562 95.8219 20.3228C95.4882 20.182 95.1174 20.1116 94.7095 20.1116C94.1829 20.1116 93.7305 20.2079 93.3523 20.4006C92.974 20.5933 92.7886 20.8675 92.7961 21.2232C92.7886 21.4751 92.8962 21.7086 93.1187 21.9235C93.3486 22.1384 93.7898 22.3051 94.4425 22.4237L97.9134 23.0462C99.6636 23.3649 100.965 23.9021 101.818 24.658C102.678 25.4065 103.112 26.4107 103.12 27.6705C103.112 28.8858 102.749 29.9419 102.029 30.8386C101.317 31.7278 100.342 32.417 99.1037 32.9061C97.8726 33.3878 96.4672 33.6287 94.8875 33.6287C92.2769 33.6287 90.2337 33.0951 88.7579 32.028C87.2894 30.9608 86.4699 29.5528 86.2993 27.8039L92.3956 27.8039C92.4771 28.3449 92.7441 28.7636 93.1965 29.06C93.6564 29.349 94.2348 29.4935 94.932 29.4935C95.4956 29.4935 95.9591 29.3972 96.3225 29.2045C96.6934 29.0118 96.8825 28.7376 96.8899 28.3819C96.8825 28.0558 96.7193 27.7965 96.4004 27.6038C96.0889 27.4111 95.5994 27.2555 94.932 27.1369L91.9061 26.6033C90.1632 26.2995 88.858 25.7215 87.9902 24.8692C87.1225 24.017 86.6924 22.9202 86.6998 21.5789C86.6924 20.3932 87.0039 19.389 87.6343 18.5665C88.2721 17.7365 89.1806 17.1065 90.3598 16.6767C91.5464 16.2395 92.9518 16.0209 94.576 16.0209C97.0456 16.0209 98.9924 16.5322 100.416 17.5549C101.848 18.5776 102.6 19.993 102.675 21.8012Z" fill="#0088CC"/>
<path d="M76.3363 33.6287C74.4822 33.6287 72.8951 33.2618 71.575 32.5282C70.2548 31.7871 69.2425 30.757 68.538 29.4379C67.8334 28.1114 67.4811 26.5737 67.4811 24.8248C67.4811 23.0759 67.8334 21.5418 68.538 20.2227C69.2425 18.8962 70.2548 17.8661 71.575 17.1325C72.8951 16.3914 74.4822 16.0209 76.3363 16.0209C78.1904 16.0209 79.7775 16.3914 81.0976 17.1325C82.4177 17.8661 83.43 18.8962 84.1346 20.2227C84.8391 21.5418 85.1914 23.0759 85.1914 24.8248C85.1914 26.5737 84.8391 28.1114 84.1346 29.4379C83.43 30.757 82.4177 31.7871 81.0976 32.5282C79.7775 33.2618 78.1904 33.6287 76.3363 33.6287ZM76.3808 29.0933C76.8999 29.0933 77.3486 28.9192 77.7268 28.5709C78.1051 28.2226 78.398 27.7261 78.6057 27.0813C78.8133 26.4366 78.9172 25.6696 78.9172 24.7803C78.9172 23.8836 78.8133 23.1166 78.6057 22.4793C78.398 21.8346 78.1051 21.338 77.7268 20.9897C77.3486 20.6414 76.8999 20.4673 76.3808 20.4673C75.8319 20.4673 75.361 20.6414 74.9679 20.9897C74.5749 21.338 74.2745 21.8346 74.0669 22.4793C73.8592 23.1166 73.7554 23.8836 73.7554 24.7803C73.7554 25.6696 73.8592 26.4366 74.0669 27.0813C74.2745 27.7261 74.5749 28.2226 74.9679 28.5709C75.361 28.9192 75.8319 29.0933 76.3808 29.0933Z" fill="#0088CC"/>
<path d="M39.2698 33.3174L39.2698 16.2432L45.099 16.2432L45.099 19.4891L45.277 19.4891C45.633 18.4219 46.2411 17.5771 47.1014 16.9546C47.9617 16.3321 48.9852 16.0209 50.1718 16.0209C51.3733 16.0209 52.4078 16.3395 53.2755 16.9769C54.1433 17.6068 54.6661 18.4442 54.8441 19.4891L55.0221 19.4891C55.3113 18.4442 55.9269 17.6068 56.8688 16.9769C57.8107 16.3395 58.9157 16.0209 60.1839 16.0209C61.8229 16.0209 63.1504 16.547 64.1665 17.5994C65.1899 18.6517 65.7017 20.0523 65.7017 21.8012L65.7017 33.3174L59.5609 33.3174L59.5609 23.3575C59.5609 22.609 59.3718 22.0235 58.9936 21.6011C58.6153 21.1713 58.1073 20.9564 57.4695 20.9564C56.8391 20.9564 56.3385 21.1713 55.9677 21.6011C55.6043 22.0235 55.4226 22.609 55.4226 23.3575L55.4226 33.3174L49.5488 33.3174L49.5488 23.3575C49.5488 22.609 49.3597 22.0235 48.9815 21.6011C48.6032 21.1713 48.0952 20.9564 47.4574 20.9564C47.0347 20.9564 46.6713 21.0527 46.3672 21.2454C46.0631 21.4381 45.8258 21.716 45.6552 22.0791C45.4921 22.4348 45.4105 22.8609 45.4105 23.3575L45.4105 33.3174L39.2698 33.3174Z" fill="#0088CC"/>
<path d="M37.3896 16.2432L37.3896 20.6896L26.1316 20.6896L26.1316 16.2432L37.3896 16.2432ZM28.312 12.1525L34.4527 12.1525L34.4527 27.8261C34.4527 28.0632 34.4935 28.2633 34.5751 28.4264C34.6567 28.582 34.7827 28.7006 34.9533 28.7821C35.1239 28.8562 35.3427 28.8932 35.6097 28.8932C35.7951 28.8932 36.0101 28.871 36.2549 28.8265C36.507 28.7821 36.6925 28.745 36.8111 28.7154L37.7011 33.0284C37.4267 33.1099 37.0336 33.21 36.5219 33.3285C36.0176 33.4471 35.4168 33.5249 34.7197 33.562C33.3106 33.6361 32.1277 33.4916 31.171 33.1285C30.2143 32.7579 29.4949 32.1762 29.0128 31.3832C28.5307 30.5903 28.2971 29.5973 28.312 28.4041L28.312 12.1525Z" fill="#0088CC"/>
<path d="M9.79435 33.3174L3.11963 33.3174L10.6398 10.5518L19.0945 10.5518L26.6147 33.3174L19.9399 33.3174L14.9561 16.8212L14.7781 16.8212L9.79435 33.3174ZM8.54841 24.3356L21.0969 24.3356L21.0969 28.9599L8.54841 28.9599L8.54841 24.3356Z" fill="#0088CC"/>
<line x1="271.91" y1="1.00769" x2="271.91" y2="44.0077" stroke="#00A61C" stroke-width="4"/>
<path d="M296.158 13.7317L304.39 13.7317C305.974 13.7317 307.214 14.1237 308.11 14.9077C309.006 15.6917 309.454 16.8277 309.454 18.3157C309.454 19.0677 309.278 19.7557 308.926 20.3797C308.574 20.9877 308.094 21.4597 307.486 21.7957C308.318 22.0997 308.942 22.5637 309.358 23.1877C309.774 23.7957 309.982 24.5957 309.982 25.5877C309.982 26.5957 309.75 27.4757 309.286 28.2277C308.838 28.9637 308.214 29.5317 307.414 29.9317C306.63 30.3157 305.758 30.5077 304.798 30.5077L296.158 30.5077L296.158 13.7317ZM303.694 20.5477C304.334 20.5477 304.838 20.3877 305.206 20.0677C305.574 19.7477 305.758 19.2357 305.758 18.5317C305.758 17.7637 305.574 17.2357 305.206 16.9477C304.854 16.6597 304.31 16.5157 303.574 16.5157L299.806 16.5157L299.806 20.5477L303.694 20.5477ZM303.91 27.7237C304.694 27.7237 305.286 27.5717 305.686 27.2677C306.102 26.9477 306.31 26.3957 306.31 25.6117C306.31 24.8117 306.094 24.2357 305.662 23.8837C305.246 23.5317 304.622 23.3557 303.79 23.3557L299.806 23.3557L299.806 27.7237L303.91 27.7237ZM318.481 30.8677C317.089 30.8677 315.865 30.6197 314.809 30.1237C313.769 29.6117 312.961 28.8997 312.385 27.9877C311.825 27.0597 311.545 25.9797 311.545 24.7477C311.545 23.5477 311.825 22.4837 312.385 21.5557C312.961 20.6277 313.769 19.9077 314.809 19.3957C315.865 18.8837 317.089 18.6277 318.481 18.6277C319.857 18.6277 321.065 18.8837 322.105 19.3957C323.161 19.9077 323.969 20.6277 324.529 21.5557C325.105 22.4837 325.393 23.5477 325.393 24.7477C325.393 25.9797 325.105 27.0597 324.529 27.9877C323.969 28.8997 323.169 29.6117 322.129 30.1237C321.089 30.6197 319.873 30.8677 318.481 30.8677ZM318.481 28.0357C319.457 28.0357 320.233 27.7397 320.809 27.1477C321.385 26.5397 321.673 25.7397 321.673 24.7477C321.673 23.7237 321.385 22.9237 320.809 22.3477C320.249 21.7557 319.473 21.4597 318.481 21.4597C317.489 21.4597 316.705 21.7557 316.129 22.3477C315.553 22.9237 315.265 23.7237 315.265 24.7477C315.265 25.7397 315.553 26.5397 316.129 27.1477C316.721 27.7397 317.505 28.0357 318.481 28.0357ZM327.424 12.7717L331.048 12.7717L331.048 30.5077L327.424 30.5077L327.424 12.7717ZM340.188 30.8677C337.98 30.8677 336.244 30.3397 334.98 29.2837C333.716 28.2117 333.084 26.7157 333.084 24.7957C333.084 22.8917 333.644 21.3877 334.764 20.2837C335.9 19.1797 337.516 18.6277 339.612 18.6277C340.988 18.6277 342.156 18.8837 343.116 19.3957C344.076 19.9077 344.804 20.6197 345.3 21.5317C345.796 22.4277 346.044 23.4437 346.044 24.5797L346.044 26.0437L336.54 26.0437C336.796 27.5157 338.172 28.2517 340.668 28.2517C341.404 28.2517 342.164 28.1877 342.948 28.0597C343.732 27.9317 344.412 27.7557 344.988 27.5317L344.988 30.0757C344.428 30.3157 343.708 30.5077 342.828 30.6517C341.948 30.7957 341.068 30.8677 340.188 30.8677ZM342.612 23.6917C342.564 22.9237 342.276 22.3317 341.748 21.9157C341.22 21.4837 340.492 21.2677 339.564 21.2677C338.652 21.2677 337.932 21.4837 337.404 21.9157C336.876 22.3477 336.588 22.9397 336.54 23.6917L342.612 23.6917ZM352.873 30.8677C351.529 30.8677 350.505 30.4997 349.801 29.7637C349.113 29.0117 348.769 27.9717 348.769 26.6437L348.769 21.6037L347.089 21.6037L347.089 18.9877L348.769 18.9877L348.769 15.5317L352.393 15.5317L352.393 18.9877L355.105 18.9877L355.105 21.6037L352.393 21.6037L352.393 26.1637C352.393 26.8357 352.521 27.3237 352.777 27.6277C353.033 27.9157 353.489 28.0597 354.145 28.0597C354.673 28.0597 355.177 27.9317 355.657 27.6757L355.657 30.3877C354.921 30.7077 353.993 30.8677 352.873 30.8677ZM359.322 17.2117C358.762 17.2117 358.29 17.0277 357.906 16.6597C357.522 16.2917 357.33 15.8277 357.33 15.2677C357.33 14.7237 357.522 14.2677 357.906 13.8997C358.29 13.5157 358.762 13.3237 359.322 13.3237C359.882 13.3237 360.354 13.5157 360.738 13.8997C361.122 14.2677 361.314 14.7237 361.314 15.2677C361.314 15.8277 361.122 16.2917 360.738 16.6597C360.354 17.0277 359.882 17.2117 359.322 17.2117ZM357.498 18.9877L361.146 18.9877L361.146 30.5077L357.498 30.5077L357.498 18.9877ZM363.799 18.9877L367.183 18.9877L367.183 20.3797C367.679 19.8197 368.255 19.3877 368.911 19.0837C369.567 18.7797 370.247 18.6277 370.951 18.6277C371.831 18.6277 372.535 18.7717 373.063 19.0597C373.591 19.3317 374.007 19.7397 374.311 20.2837C374.807 19.7557 375.407 19.3477 376.111 19.0597C376.831 18.7717 377.543 18.6277 378.247 18.6277C379.719 18.6277 380.767 19.0037 381.391 19.7557C382.031 20.5077 382.351 21.5957 382.351 23.0197L382.351 30.5077L378.895 30.5077L378.895 23.5237C378.895 22.7877 378.751 22.2597 378.463 21.9397C378.175 21.6197 377.711 21.4597 377.071 21.4597C376.175 21.4597 375.455 21.8117 374.911 22.5157C374.943 23.0277 374.959 23.4437 374.959 23.7637L374.959 30.5077L371.479 30.5077L371.479 23.4037C371.479 22.6997 371.351 22.2037 371.095 21.9157C370.855 21.6117 370.431 21.4597 369.823 21.4597C368.879 21.4597 368.039 21.9957 367.303 23.0677L367.303 30.5077L363.799 30.5077L363.799 18.9877ZM393.143 13.7317L396.743 13.7317L401.903 24.9637L407.087 13.7317L410.663 13.7317L410.663 30.5077L407.183 30.5077L407.183 20.9797L402.743 30.5077L401.063 30.5077L396.647 20.9797L396.647 30.5077L393.143 30.5077L393.143 13.7317ZM419.806 30.8677C417.598 30.8677 415.862 30.3397 414.598 29.2837C413.334 28.2117 412.702 26.7157 412.702 24.7957C412.702 22.8917 413.262 21.3877 414.382 20.2837C415.518 19.1797 417.134 18.6277 419.23 18.6277C420.606 18.6277 421.774 18.8837 422.734 19.3957C423.694 19.9077 424.422 20.6197 424.918 21.5317C425.414 22.4277 425.662 23.4437 425.662 24.5797L425.662 26.0437L416.158 26.0437C416.414 27.5157 417.79 28.2517 420.286 28.2517C421.022 28.2517 421.782 28.1877 422.566 28.0597C423.35 27.9317 424.03 27.7557 424.606 27.5317L424.606 30.0757C424.046 30.3157 423.326 30.5077 422.446 30.6517C421.566 30.7957 420.686 30.8677 419.806 30.8677ZM422.23 23.6917C422.182 22.9237 421.894 22.3317 421.366 21.9157C420.838 21.4837 420.11 21.2677 419.182 21.2677C418.27 21.2677 417.55 21.4837 417.022 21.9157C416.494 22.3477 416.206 22.9397 416.158 23.6917L422.23 23.6917ZM432.49 30.8677C431.146 30.8677 430.122 30.4997 429.418 29.7637C428.73 29.0117 428.386 27.9717 428.386 26.6437L428.386 21.6037L426.706 21.6037L426.706 18.9877L428.386 18.9877L428.386 15.5317L432.01 15.5317L432.01 18.9877L434.722 18.9877L434.722 21.6037L432.01 21.6037L432.01 26.1637C432.01 26.8357 432.138 27.3237 432.394 27.6277C432.65 27.9157 433.106 28.0597 433.762 28.0597C434.29 28.0597 434.794 27.9317 435.274 27.6757L435.274 30.3877C434.538 30.7077 433.61 30.8677 432.49 30.8677ZM443.571 30.8677C441.363 30.8677 439.627 30.3397 438.363 29.2837C437.099 28.2117 436.467 26.7157 436.467 24.7957C436.467 22.8917 437.027 21.3877 438.147 20.2837C439.283 19.1797 440.899 18.6277 442.995 18.6277C444.371 18.6277 445.539 18.8837 446.499 19.3957C447.459 19.9077 448.187 20.6197 448.683 21.5317C449.179 22.4277 449.427 23.4437 449.427 24.5797L449.427 26.0437L439.923 26.0437C440.179 27.5157 441.555 28.2517 444.051 28.2517C444.787 28.2517 445.547 28.1877 446.331 28.0597C447.115 27.9317 447.795 27.7557 448.371 27.5317L448.371 30.0757C447.811 30.3157 447.091 30.5077 446.211 30.6517C445.331 30.7957 444.451 30.8677 443.571 30.8677ZM445.995 23.6917C445.947 22.9237 445.659 22.3317 445.131 21.9157C444.603 21.4837 443.875 21.2677 442.947 21.2677C442.035 21.2677 441.315 21.4837 440.787 21.9157C440.259 22.3477 439.971 22.9397 439.923 23.6917L445.995 23.6917ZM457.888 30.8677C456.496 30.8677 455.272 30.6197 454.216 30.1237C453.176 29.6117 452.368 28.8997 451.792 27.9877C451.232 27.0597 450.952 25.9797 450.952 24.7477C450.952 23.5477 451.232 22.4837 451.792 21.5557C452.368 20.6277 453.176 19.9077 454.216 19.3957C455.272 18.8837 456.496 18.6277 457.888 18.6277C459.264 18.6277 460.472 18.8837 461.512 19.3957C462.568 19.9077 463.376 20.6277 463.936 21.5557C464.512 22.4837 464.8 23.5477 464.8 24.7477C464.8 25.9797 464.512 27.0597 463.936 27.9877C463.376 28.8997 462.576 29.6117 461.536 30.1237C460.496 30.6197 459.28 30.8677 457.888 30.8677ZM457.888 28.0357C458.864 28.0357 459.64 27.7397 460.216 27.1477C460.792 26.5397 461.08 25.7397 461.08 24.7477C461.08 23.7237 460.792 22.9237 460.216 22.3477C459.656 21.7557 458.88 21.4597 457.888 21.4597C456.896 21.4597 456.112 21.7557 455.536 22.3477C454.96 22.9237 454.672 23.7237 454.672 24.7477C454.672 25.7397 454.96 26.5397 455.536 27.1477C456.128 27.7397 456.912 28.0357 457.888 28.0357ZM466.83 18.9877L470.334 18.9877L470.334 20.6437C470.798 20.0837 471.446 19.6597 472.278 19.3717C473.11 19.0677 474.054 18.9157 475.11 18.9157L475.11 21.6757C474.006 21.6757 473.03 21.8437 472.182 22.1797C471.35 22.5157 470.774 23.0277 470.454 23.7157L470.454 30.5077L466.83 30.5077L466.83 18.9877ZM482.755 30.8677C481.363 30.8677 480.139 30.6197 479.083 30.1237C478.043 29.6117 477.235 28.8997 476.659 27.9877C476.099 27.0597 475.819 25.9797 475.819 24.7477C475.819 23.5477 476.099 22.4837 476.659 21.5557C477.235 20.6277 478.043 19.9077 479.083 19.3957C480.139 18.8837 481.363 18.6277 482.755 18.6277C484.131 18.6277 485.339 18.8837 486.379 19.3957C487.435 19.9077 488.243 20.6277 488.803 21.5557C489.379 22.4837 489.667 23.5477 489.667 24.7477C489.667 25.9797 489.379 27.0597 488.803 27.9877C488.243 28.8997 487.443 29.6117 486.403 30.1237C485.363 30.6197 484.147 30.8677 482.755 30.8677ZM482.755 28.0357C483.731 28.0357 484.507 27.7397 485.083 27.1477C485.659 26.5397 485.947 25.7397 485.947 24.7477C485.947 23.7237 485.659 22.9237 485.083 22.3477C484.523 21.7557 483.747 21.4597 482.755 21.4597C481.763 21.4597 480.979 21.7557 480.403 22.3477C479.827 22.9237 479.539 23.7237 479.539 24.7477C479.539 25.7397 479.827 26.5397 480.403 27.1477C480.995 27.7397 481.779 28.0357 482.755 28.0357ZM491.697 12.7717L495.321 12.7717L495.321 30.5077L491.697 30.5077L491.697 12.7717ZM504.27 13.4437L508.086 13.4437L505.95 17.6677L502.614 17.6677L504.27 13.4437ZM504.294 30.8677C502.902 30.8677 501.678 30.6197 500.622 30.1237C499.582 29.6117 498.774 28.8997 498.198 27.9877C497.638 27.0597 497.358 25.9797 497.358 24.7477C497.358 23.5477 497.638 22.4837 498.198 21.5557C498.774 20.6277 499.582 19.9077 500.622 19.3957C501.678 18.8837 502.902 18.6277 504.294 18.6277C505.67 18.6277 506.878 18.8837 507.918 19.3957C508.974 19.9077 509.782 20.6277 510.342 21.5557C510.918 22.4837 511.206 23.5477 511.206 24.7477C511.206 25.9797 510.918 27.0597 510.342 27.9877C509.782 28.8997 508.982 29.6117 507.942 30.1237C506.902 30.6197 505.686 30.8677 504.294 30.8677ZM504.294 28.0357C505.27 28.0357 506.046 27.7397 506.622 27.1477C507.198 26.5397 507.486 25.7397 507.486 24.7477C507.486 23.7237 507.198 22.9237 506.622 22.3477C506.062 21.7557 505.286 21.4597 504.294 21.4597C503.302 21.4597 502.518 21.7557 501.942 22.3477C501.366 22.9237 501.078 23.7237 501.078 24.7477C501.078 25.7397 501.366 26.5397 501.942 27.1477C502.534 27.7397 503.318 28.0357 504.294 28.0357ZM519.428 36.0277C518.66 36.0277 517.884 35.9557 517.1 35.8117C516.332 35.6677 515.684 35.4757 515.156 35.2357L515.156 32.5717C516.388 33.1157 517.812 33.3877 519.428 33.3877C520.724 33.3877 521.652 33.1237 522.212 32.5957C522.772 32.0677 523.052 31.2757 523.052 30.2197L523.052 29.4997C522.556 29.9477 521.948 30.2837 521.228 30.5077C520.508 30.7477 519.74 30.8677 518.924 30.8677C517.74 30.8677 516.676 30.6117 515.732 30.0997C514.804 29.5717 514.076 28.8437 513.548 27.9157C513.02 26.9877 512.756 25.9317 512.756 24.7477C512.756 23.5317 513.012 22.4597 513.524 21.5317C514.052 20.6037 514.772 19.8917 515.684 19.3957C516.612 18.8837 517.668 18.6277 518.852 18.6277C519.748 18.6277 520.54 18.7557 521.228 19.0117C521.916 19.2677 522.564 19.6757 523.172 20.2357L523.172 18.9877L526.676 18.9877L526.676 29.7637C526.676 31.7637 526.084 33.3077 524.9 34.3957C523.716 35.4837 521.892 36.0277 519.428 36.0277ZM519.788 28.0597C520.54 28.0597 521.212 27.8597 521.804 27.4597C522.412 27.0437 522.828 26.4997 523.052 25.8277L523.052 23.6677C522.796 22.9957 522.372 22.4597 521.78 22.0597C521.204 21.6597 520.54 21.4597 519.788 21.4597C518.812 21.4597 518.012 21.7557 517.388 22.3477C516.78 22.9397 516.476 23.7317 516.476 24.7237C516.476 25.7317 516.78 26.5397 517.388 27.1477C518.012 27.7557 518.812 28.0597 519.788 28.0597ZM531.189 17.2117C530.629 17.2117 530.157 17.0277 529.773 16.6597C529.389 16.2917 529.197 15.8277 529.197 15.2677C529.197 14.7237 529.389 14.2677 529.773 13.8997C530.157 13.5157 530.629 13.3237 531.189 13.3237C531.749 13.3237 532.221 13.5157 532.605 13.8997C532.989 14.2677 533.181 14.7237 533.181 15.2677C533.181 15.8277 532.989 16.2917 532.605 16.6597C532.221 17.0277 531.749 17.2117 531.189 17.2117ZM529.365 18.9877L533.013 18.9877L533.013 30.5077L529.365 30.5077L529.365 18.9877ZM542.002 30.8677C539.922 30.8677 538.266 30.3397 537.034 29.2837C535.802 28.2117 535.186 26.7077 535.186 24.7717C535.186 22.8357 535.802 21.3317 537.034 20.2597C538.282 19.1717 539.946 18.6277 542.026 18.6277C543.914 18.6277 545.418 18.9797 546.538 19.6837L546.538 22.5397C546.026 22.1717 545.426 21.8997 544.738 21.7237C544.066 21.5477 543.354 21.4597 542.602 21.4597C541.482 21.4597 540.586 21.7317 539.914 22.2757C539.242 22.8197 538.906 23.6517 538.906 24.7717C538.906 25.8917 539.234 26.7237 539.89 27.2677C540.562 27.7957 541.458 28.0597 542.578 28.0597C544.13 28.0597 545.498 27.6837 546.682 26.9317L546.682 29.7637C545.498 30.4997 543.938 30.8677 542.002 30.8677ZM554.802 30.8677C553.41 30.8677 552.186 30.6197 551.13 30.1237C550.09 29.6117 549.282 28.8997 548.706 27.9877C548.146 27.0597 547.866 25.9797 547.866 24.7477C547.866 23.5477 548.146 22.4837 548.706 21.5557C549.282 20.6277 550.09 19.9077 551.13 19.3957C552.186 18.8837 553.41 18.6277 554.802 18.6277C556.178 18.6277 557.386 18.8837 558.426 19.3957C559.482 19.9077 560.29 20.6277 560.85 21.5557C561.426 22.4837 561.714 23.5477 561.714 24.7477C561.714 25.9797 561.426 27.0597 560.85 27.9877C560.29 28.8997 559.49 29.6117 558.45 30.1237C557.41 30.6197 556.194 30.8677 554.802 30.8677ZM554.802 28.0357C555.778 28.0357 556.554 27.7397 557.13 27.1477C557.706 26.5397 557.994 25.7397 557.994 24.7477C557.994 23.7237 557.706 22.9237 557.13 22.3477C556.57 21.7557 555.794 21.4597 554.802 21.4597C553.81 21.4597 553.026 21.7557 552.45 22.3477C551.874 22.9237 551.586 23.7237 551.586 24.7477C551.586 25.7397 551.874 26.5397 552.45 27.1477C553.042 27.7397 553.826 28.0357 554.802 28.0357ZM572.135 13.7317L583.775 13.7317L583.775 16.7797L575.783 16.7797L575.783 20.6677L581.663 20.6677L581.663 23.5957L575.783 23.5957L575.783 27.4597L583.775 27.4597L583.775 30.5077L572.135 30.5077L572.135 13.7317ZM589.917 30.8677C589.053 30.8677 588.125 30.7717 587.133 30.5797C586.157 30.4037 585.389 30.1477 584.829 29.8117L584.829 26.9797C585.469 27.3637 586.237 27.6757 587.133 27.9157C588.029 28.1557 588.861 28.2757 589.629 28.2757C590.285 28.2757 590.765 28.2197 591.069 28.1077C591.373 27.9957 591.525 27.7877 591.525 27.4837C591.525 27.2437 591.437 27.0517 591.261 26.9077C591.085 26.7477 590.813 26.6117 590.445 26.4997C590.093 26.3717 589.501 26.1877 588.669 25.9477C587.693 25.6597 586.925 25.3717 586.365 25.0837C585.821 24.7797 585.405 24.4037 585.117 23.9557C584.845 23.5077 584.709 22.9317 584.709 22.2277C584.709 21.0277 585.181 20.1317 586.125 19.5397C587.085 18.9317 588.381 18.6277 590.013 18.6277C590.813 18.6277 591.637 18.7157 592.485 18.8917C593.349 19.0517 594.013 19.2677 594.477 19.5397L594.477 22.2997C594.013 21.9957 593.405 21.7477 592.653 21.5557C591.917 21.3637 591.197 21.2677 590.493 21.2677C589.837 21.2677 589.325 21.3317 588.957 21.4597C588.605 21.5877 588.429 21.8277 588.429 22.1797C588.429 22.4837 588.597 22.7157 588.933 22.8757C589.285 23.0357 589.933 23.2357 590.877 23.4757L591.357 23.5957C592.365 23.8677 593.149 24.1717 593.709 24.5077C594.269 24.8277 594.661 25.2197 594.885 25.6837C595.125 26.1317 595.245 26.6997 595.245 27.3877C595.245 28.4437 594.789 29.2917 593.877 29.9317C592.965 30.5557 591.645 30.8677 589.917 30.8677ZM597.283 18.9877L600.787 18.9877L600.787 20.2597C601.955 19.1717 603.395 18.6277 605.107 18.6277C606.307 18.6277 607.363 18.8837 608.275 19.3957C609.203 19.8917 609.923 20.6037 610.435 21.5317C610.947 22.4437 611.203 23.5077 611.203 24.7237C611.203 25.9237 610.947 26.9877 610.435 27.9157C609.923 28.8437 609.203 29.5717 608.275 30.0997C607.363 30.6117 606.307 30.8677 605.107 30.8677C604.291 30.8677 603.515 30.7477 602.779 30.5077C602.043 30.2677 601.419 29.9237 600.907 29.4757L600.907 35.7637L597.283 35.7637L597.283 18.9877ZM604.195 28.0357C605.171 28.0357 605.963 27.7317 606.571 27.1237C607.195 26.5157 607.507 25.7157 607.507 24.7237C607.507 23.7317 607.195 22.9397 606.571 22.3477C605.963 21.7557 605.171 21.4597 604.195 21.4597C603.443 21.4597 602.771 21.6597 602.179 22.0597C601.587 22.4597 601.163 22.9877 600.907 23.6437L600.907 25.8277C601.147 26.4997 601.563 27.0357 602.155 27.4357C602.763 27.8357 603.443 28.0357 604.195 28.0357ZM619.868 30.8677C617.66 30.8677 615.924 30.3397 614.66 29.2837C613.396 28.2117 612.764 26.7157 612.764 24.7957C612.764 22.8917 613.324 21.3877 614.444 20.2837C615.58 19.1797 617.196 18.6277 619.292 18.6277C620.668 18.6277 621.836 18.8837 622.796 19.3957C623.756 19.9077 624.484 20.6197 624.98 21.5317C625.476 22.4277 625.724 23.4437 625.724 24.5797L625.724 26.0437L616.22 26.0437C616.476 27.5157 617.852 28.2517 620.348 28.2517C621.084 28.2517 621.844 28.1877 622.628 28.0597C623.412 27.9317 624.092 27.7557 624.668 27.5317L624.668 30.0757C624.108 30.3157 623.388 30.5077 622.508 30.6517C621.628 30.7957 620.748 30.8677 619.868 30.8677ZM622.292 23.6917C622.244 22.9237 621.956 22.3317 621.428 21.9157C620.9 21.4837 620.172 21.2677 619.244 21.2677C618.332 21.2677 617.612 21.4837 617.084 21.9157C616.556 22.3477 616.268 22.9397 616.22 23.6917L622.292 23.6917ZM634.064 30.8677C631.984 30.8677 630.328 30.3397 629.096 29.2837C627.864 28.2117 627.248 26.7077 627.248 24.7717C627.248 22.8357 627.864 21.3317 629.096 20.2597C630.344 19.1717 632.008 18.6277 634.088 18.6277C635.976 18.6277 637.48 18.9797 638.6 19.6837L638.6 22.5397C638.088 22.1717 637.488 21.8997 636.8 21.7237C636.128 21.5477 635.416 21.4597 634.664 21.4597C633.544 21.4597 632.648 21.7317 631.976 22.2757C631.304 22.8197 630.968 23.6517 630.968 24.7717C630.968 25.8917 631.296 26.7237 631.952 27.2677C632.624 27.7957 633.52 28.0597 634.64 28.0597C636.192 28.0597 637.56 27.6837 638.744 26.9317L638.744 29.7637C637.56 30.4997 636 30.8677 634.064 30.8677ZM642.752 17.2117C642.192 17.2117 641.72 17.0277 641.336 16.6597C640.952 16.2917 640.76 15.8277 640.76 15.2677C640.76 14.7237 640.952 14.2677 641.336 13.8997C641.72 13.5157 642.192 13.3237 642.752 13.3237C643.312 13.3237 643.784 13.5157 644.168 13.8997C644.552 14.2677 644.744 14.7237 644.744 15.2677C644.744 15.8277 644.552 16.2917 644.168 16.6597C643.784 17.0277 643.312 17.2117 642.752 17.2117ZM640.928 18.9877L644.576 18.9877L644.576 30.5077L640.928 30.5077L640.928 18.9877ZM651.524 30.8677C650.116 30.8677 648.964 30.5157 648.068 29.8117C647.188 29.0917 646.748 28.1157 646.748 26.8837C646.748 25.6037 647.172 24.6117 648.02 23.9077C648.868 23.1877 650.068 22.8277 651.62 22.8277C652.308 22.8277 652.964 22.8997 653.588 23.0437C654.212 23.1877 654.764 23.3877 655.244 23.6437L655.244 23.3557C655.244 22.6357 654.988 22.1077 654.476 21.7717C653.964 21.4357 653.18 21.2677 652.124 21.2677C650.716 21.2677 649.42 21.5317 648.236 22.0597L648.236 19.4197C648.748 19.1957 649.412 19.0117 650.228 18.8677C651.044 18.7077 651.86 18.6277 652.676 18.6277C654.756 18.6277 656.308 19.0597 657.332 19.9237C658.356 20.7717 658.868 21.9637 658.868 23.4997L658.868 30.5077L655.46 30.5077L655.46 29.4517C654.484 30.3957 653.172 30.8677 651.524 30.8677ZM652.508 28.4677C653.1 28.4677 653.636 28.3557 654.116 28.1317C654.596 27.9077 654.972 27.5957 655.244 27.1957L655.244 26.0437C654.428 25.4997 653.532 25.2277 652.556 25.2277C651.884 25.2277 651.364 25.3717 650.996 25.6597C650.644 25.9317 650.468 26.3397 650.468 26.8837C650.468 27.3957 650.644 27.7877 650.996 28.0597C651.348 28.3317 651.852 28.4677 652.508 28.4677ZM661.268 12.7717L664.892 12.7717L664.892 30.5077L661.268 30.5077L661.268 12.7717Z" fill="#0088CC"/>
</svg>
