<svg width="72" height="72" viewBox="0 0 72 72" fill="none" xmlns="http://www.w3.org/2000/svg">
<path d="M36 5.99988C52.569 5.99988 66 19.4339 66 35.9999C66 52.5659 52.569 65.9999 36 65.9999C19.431 65.9999 6 52.5659 6 35.9999C6 19.4339 19.431 5.99988 36 5.99988ZM36 11.0009C22.215 11.0009 11.001 22.2149 11.001 35.9999C11.001 49.7849 22.215 60.9989 36 60.9989C49.785 60.9989 60.999 49.7849 60.999 35.9999C60.999 22.2149 49.785 11.0009 36 11.0009ZM35.9961 43.5065C37.6506 43.5065 38.9919 44.8481 38.9919 46.5026C38.9919 48.1571 37.6506 49.4987 35.9961 49.4987C34.3413 49.4987 33 48.1571 33 46.5026C33 44.8481 34.3413 43.5065 35.9961 43.5065ZM35.9835 20.9999C37.1226 20.999 38.0646 21.8447 38.2143 22.9428L38.2353 23.2481L38.2461 36.7529C38.247 37.9955 37.2405 39.0038 35.9979 39.0047C34.8588 39.0056 33.9165 38.1599 33.7668 37.0619L33.7461 36.7565L33.7353 23.2517C33.7341 22.009 34.7406 21.0009 35.9835 20.9999Z" fill="#FF5555"/>
</svg>
