<svg width="37" height="37" viewBox="0 0 37 37" fill="none" xmlns="http://www.w3.org/2000/svg">
<path d="M18.7808 6.51963C23.5343 6.51054 26.2358 9.65087 26.6346 13.4496L26.7546 13.4494C27.4811 13.4468 28.201 13.5874 28.8732 13.8632C29.5453 14.1389 30.1566 14.5444 30.672 15.0564C31.1874 15.5685 31.5969 16.1771 31.877 16.8474C32.1571 17.5178 32.3024 18.2368 32.3046 18.9633C32.305 19.6896 32.1624 20.4088 31.8848 21.08C31.6073 21.7511 31.2002 22.361 30.687 22.8748C30.1737 23.3887 29.5642 23.7964 28.8934 24.0747C28.2226 24.353 27.5035 24.4965 26.7772 24.4969L25.9042 24.4985L23.5388 28.4556C23.3971 28.7038 23.1663 28.8888 22.8932 28.973C22.6201 29.0572 22.3252 29.0343 22.0683 28.909C21.8115 28.7837 21.612 28.5653 21.5103 28.2982C21.4086 28.0311 21.4124 27.7353 21.5209 27.4709L21.5881 27.3343L23.3062 24.5035L20.1022 24.5096L17.7368 28.4667C17.5951 28.7149 17.3643 28.8999 17.0912 28.9841C16.8181 29.0683 16.5232 29.0454 16.2663 28.9201C16.0095 28.7948 15.81 28.5764 15.7083 28.3093C15.6066 28.0422 15.6104 27.7464 15.7189 27.482L15.7861 27.3454L17.5027 24.5146L14.2957 24.5207L11.9333 28.4778C11.7933 28.7291 11.5622 28.9173 11.2877 29.0036C11.0132 29.0898 10.7161 29.0676 10.4574 28.9415C10.1988 28.8154 9.99831 28.595 9.89721 28.3256C9.79611 28.0562 9.80208 27.7583 9.9139 27.4931L9.98113 27.3565L11.6977 24.5257L10.8547 24.5273C10.1283 24.5299 9.40854 24.3893 8.73647 24.1137C8.0644 23.838 7.45321 23.4327 6.93782 22.9208C6.42244 22.4089 6.01294 21.8005 5.73272 21.1303C5.4525 20.4601 5.30705 19.7413 5.30467 19.0149C5.30387 18.2883 5.44628 17.5686 5.72376 16.897C6.00124 16.2254 6.40834 15.6151 6.92181 15.1009C7.43528 14.5867 8.04504 14.1788 8.71624 13.9004C9.38745 13.622 10.1069 13.4785 10.8336 13.4783L10.9536 13.4781C11.3393 9.65236 14.0273 6.52872 18.7808 6.51963ZM18.7851 8.76512C15.6786 8.77106 12.9743 11.2257 12.9808 14.6097C12.9818 15.1452 12.5041 15.5676 11.9566 15.5687L10.9216 15.5707C9.0301 15.5743 7.49847 17.0787 7.50202 18.9312C7.50556 20.7837 9.04294 22.2868 10.9359 22.2832L26.6859 22.253C28.5774 22.2494 30.109 20.7435 30.1055 18.891C30.1019 17.0385 28.5646 15.5399 26.6731 15.5435L25.6381 15.5455C25.0906 15.5466 24.6113 15.1275 24.6102 14.5905C24.6037 11.163 21.8901 8.76068 18.7836 8.76663" fill="#0070A8"/>
</svg>
