<svg width="29" height="30" viewBox="0 0 29 30" fill="none" xmlns="http://www.w3.org/2000/svg">
<path fill-rule="evenodd" clip-rule="evenodd" d="M1.21373 4.33122C1.90004 3.64227 2.83193 3.25418 3.80439 3.25232L13.1377 3.23447C13.69 3.23341 14.1386 3.68027 14.1396 4.23255C14.1407 4.78484 13.6938 5.23341 13.1415 5.23446L3.80822 5.25231C3.36619 5.25316 2.94261 5.42956 2.63064 5.74272C2.31868 6.05588 2.1439 6.48014 2.14474 6.92217L2.18044 25.5888C2.18129 26.0308 2.35769 26.4544 2.67085 26.7664C2.98401 27.0783 3.40827 27.2531 3.85029 27.2523L22.5169 27.2166C22.959 27.2157 23.3825 27.0393 23.6945 26.7262C24.0065 26.413 24.1812 25.9887 24.1804 25.5467L24.1626 16.2134C24.1615 15.6611 24.6084 15.2126 25.1606 15.2115C25.7129 15.2104 26.1615 15.6573 26.1625 16.2096L26.1804 25.5429C26.1823 26.5154 25.7977 27.4487 25.1114 28.1377C24.4251 28.8266 23.4932 29.2147 22.5208 29.2166L3.85412 29.2523C2.88166 29.2541 1.94829 28.8696 1.25934 28.1833C0.570397 27.497 0.182306 26.5651 0.180446 25.5926L0.144746 6.92599C0.142886 5.95353 0.52741 5.02016 1.21373 4.33122Z" fill="#0088CC"/>
<path fill-rule="evenodd" clip-rule="evenodd" d="M25.1361 2.38309C24.6512 2.38402 24.1865 2.57755 23.8442 2.9211L11.3973 15.4157L10.542 18.8651L13.988 17.9966L26.435 5.50193C26.7772 5.15838 26.969 4.69295 26.968 4.20802C26.9671 3.72309 26.7736 3.25839 26.43 2.91615C26.0865 2.57391 25.621 2.38216 25.1361 2.38309ZM22.4273 1.50959C23.1439 0.79025 24.1169 0.385037 25.1323 0.383096C26.1476 0.381154 27.1222 0.782642 27.8415 1.49924C28.5609 2.21583 28.9661 3.18883 28.968 4.20419C28.97 5.21955 28.5685 6.1941 27.8519 6.91344L15.2095 19.6043C15.0815 19.7327 14.9211 19.8239 14.7454 19.8682L9.41462 21.2118C9.07401 21.2976 8.71333 21.1984 8.46448 20.9505C8.21562 20.7026 8.11508 20.3423 8.19963 20.0014L9.52276 14.6655C9.56638 14.4896 9.65699 14.3289 9.7849 14.2005L22.4273 1.50959Z" fill="#0088CC"/>
</svg>
