 <svg width="37" height="36" viewBox="0 0 37 36" fill="none" xmlns="http://www.w3.org/2000/svg">
<path d="M20.5059 9.65527H28.0586C30.036 9.65527 31.5732 10.1538 32.6699 11.1509C33.7833 12.1313 34.34 13.5521 34.34 15.4133C34.34 16.7094 34.0409 17.8145 33.4427 18.7285C32.8444 19.6258 31.9969 20.2822 30.9002 20.6977L34.2154 27.0788H30.3269L27.2609 21.1713H24.2947V27.0788H20.5059V9.65527ZM27.3855 18.0056C28.3494 18.0056 29.1055 17.7979 29.6538 17.3825C30.2188 16.967 30.5013 16.3106 30.5013 15.4133C30.5013 14.4661 30.2271 13.8014 29.6788 13.4192C29.1304 13.0203 28.366 12.8209 27.3855 12.8209H24.2947V18.0056H27.3855Z" fill="#FAFAFA"/>
<path d="M10.3624 27.4527C7.81992 27.4527 5.90059 26.788 4.60441 25.4586C3.30824 24.1126 2.66016 22.3096 2.66016 20.0496V9.65527H6.44897V20.0994C6.44897 21.3624 6.79794 22.3262 7.49587 22.9909C8.19381 23.6556 9.14932 23.9879 10.3624 23.9879C11.5589 23.9879 12.4978 23.6556 13.1791 22.9909C13.877 22.3262 14.226 21.3624 14.226 20.0994V9.65527H18.0148V20.0496C18.0148 22.3096 17.375 24.1126 16.0955 25.4586C14.8159 26.788 12.9049 27.4527 10.3624 27.4527Z" fill="#FAFAFA"/>
</svg>
