<svg width="37" height="37" viewBox="0 0 37 37" fill="none" xmlns="http://www.w3.org/2000/svg">
<path d="M20.6055 9.79321H28.1582C30.1357 9.79321 31.6728 10.2917 32.7695 11.2888C33.8829 12.2692 34.4396 13.69 34.4396 15.5512C34.4396 16.8474 34.1405 17.9525 33.5423 18.8664C32.944 19.7638 32.0965 20.4202 30.9998 20.8356L34.315 27.2168H30.4265L27.3605 21.3092H24.3943V27.2168H20.6055V9.79321ZM27.4851 18.1436C28.449 18.1436 29.2051 17.9358 29.7535 17.5204C30.3185 17.105 30.6009 16.4486 30.6009 15.5512C30.6009 14.604 30.3268 13.9393 29.7784 13.5571C29.23 13.1583 28.4656 12.9589 27.4851 12.9589H24.3943V18.1436H27.4851Z" fill="#FAFAFA"/>
<path d="M10.4615 27.5907C7.91904 27.5907 5.99971 26.9259 4.70354 25.5965C3.40736 24.2505 2.75928 22.4475 2.75928 20.1875V9.79321H6.54809V20.2374C6.54809 21.5003 6.89706 22.4641 7.595 23.1288C8.29293 23.7935 9.24845 24.1259 10.4615 24.1259C11.658 24.1259 12.5969 23.7935 13.2782 23.1288C13.9762 22.4641 14.3251 21.5003 14.3251 20.2374V9.79321H18.1139V20.1875C18.1139 22.4475 17.4742 24.2505 16.1946 25.5965C14.915 26.9259 13.004 27.5907 10.4615 27.5907Z" fill="#FAFAFA"/>
</svg>
