<svg width="37" height="37" viewBox="0 0 37 37" fill="none" xmlns="http://www.w3.org/2000/svg">
<path d="M20.4368 12.5258C25.1902 12.5167 27.8918 15.6571 28.2905 19.4558L28.4105 19.4556C29.1369 19.4532 29.8567 19.594 30.5287 19.8698C31.2007 20.1456 31.8117 20.5512 32.327 21.0632C32.8422 21.5752 33.2516 22.1837 33.5316 22.854C33.8116 23.5242 33.9569 24.2431 33.9591 24.9695C33.9595 25.6958 33.8168 26.415 33.5393 27.0862C33.2617 27.7573 32.8547 28.3672 32.3414 28.8811C31.8281 29.3949 31.2187 29.8026 30.5479 30.0809C29.877 30.3592 29.1579 30.5027 28.4317 30.5031L12.5107 30.5335C11.7844 30.5359 11.0648 30.3952 10.3929 30.1195C9.72099 29.8437 9.10998 29.4383 8.59475 28.9265C8.07952 28.4146 7.67016 27.8063 7.39003 27.1362C7.1099 26.4661 6.9645 25.7474 6.96213 25.0211C6.96153 24.2947 7.10403 23.5753 7.38151 22.904C7.65898 22.2327 8.06598 21.6226 8.57927 21.1086C9.09256 20.5946 9.70208 20.1868 10.373 19.9084C11.0439 19.63 11.7632 19.4864 12.4896 19.486L12.6096 19.4858C12.9967 15.6601 15.6848 12.5349 20.4368 12.5258ZM20.4411 14.7728C17.3346 14.7788 14.6303 17.2334 14.6367 20.6174C14.6377 21.1529 14.1601 21.5754 13.6126 21.5764L12.5776 21.5784C10.6861 21.582 9.15443 23.0864 9.15798 24.9389C9.16152 26.7914 10.6989 28.29 12.5904 28.2864L28.3434 28.2562C30.2364 28.2526 31.7665 26.7497 31.7629 24.8957C31.7594 23.0432 30.2235 21.5446 28.332 21.5483L27.2955 21.5502C26.748 21.5513 26.2687 21.1322 26.2677 20.5952C26.2611 17.1677 23.5475 14.7654 20.4411 14.7713" fill="#8DA3AE"/>
<path d="M7.49483 18.7817C7.59949 19.0329 7.60956 19.3135 7.52318 19.5716C7.43679 19.8296 7.25981 20.0476 7.02501 20.1851L6.88864 20.2529L5.49925 20.8315C5.23642 20.9393 4.94257 20.9436 4.6767 20.8436C4.41083 20.7436 4.19262 20.5468 4.06586 20.2926C3.93911 20.0384 3.9132 19.7457 3.99334 19.4732C4.07347 19.2007 4.25372 18.9686 4.4979 18.8235L4.63427 18.7542L6.02367 18.177C6.29895 18.0622 6.60857 18.0614 6.88444 18.1748C7.16031 18.2882 7.37987 18.5065 7.49483 18.7817ZM17.2114 11.5136L16.9536 11.6011C16.1738 11.8756 15.4371 12.2599 14.7658 12.7423C14.0431 12.5091 13.2659 12.5062 12.5415 12.7341C11.8172 12.962 11.1815 13.4094 10.7226 14.0144C10.2636 14.6193 10.004 15.352 9.97971 16.111C9.95539 16.8699 10.1675 17.6177 10.5868 18.2508C9.85552 18.4571 9.16331 18.7828 8.53816 19.2147C7.8484 18.0344 7.58896 16.6515 7.80397 15.3014C8.01899 13.9513 8.69517 12.7175 9.71747 11.8098C10.7398 10.9021 12.045 10.3767 13.411 10.323C14.7771 10.2692 16.1195 10.6905 17.21 11.5151M5.33906 11.5843L5.49666 11.6365L6.88826 12.2099C7.14966 12.3189 7.36033 12.5224 7.47822 12.7799C7.59611 13.0374 7.61254 13.3299 7.52424 13.599C7.43594 13.8681 7.24939 14.094 7.00185 14.2316C6.75431 14.3691 6.46398 14.4083 6.18884 14.3412L6.03424 14.292L4.64264 13.7187C4.38125 13.6097 4.17057 13.4061 4.05268 13.1486C3.93479 12.8911 3.91836 12.5986 4.00666 12.3295C4.09497 12.0604 4.28151 11.8346 4.52905 11.697C4.7766 11.5594 5.06692 11.5202 5.34207 11.5873M11.056 7.09739L11.1238 7.23376L11.7024 8.62315C11.8101 8.88598 11.8144 9.17983 11.7145 9.4457C11.6145 9.71157 11.4177 9.92978 11.1635 10.0565C10.9093 10.1833 10.6165 10.2092 10.344 10.1291C10.0715 10.0489 9.83943 9.86868 9.69432 9.6245L9.62506 9.48813L9.0479 8.09873C8.94019 7.8359 8.93588 7.54206 9.03585 7.27619C9.13581 7.01031 9.33265 6.7921 9.58684 6.66534C9.84104 6.53859 10.1338 6.51268 10.4063 6.59282C10.6788 6.67296 10.9109 6.85321 11.056 7.09739ZM17.5861 6.6064C17.8353 6.70929 18.0393 6.89828 18.1609 7.13894C18.2825 7.37961 18.3136 7.65595 18.2486 7.91763L18.1964 8.07523L17.6245 9.46683C17.5172 9.73072 17.3138 9.94408 17.0553 10.0638C16.7968 10.1836 16.5025 10.2008 16.2318 10.1121C15.9611 10.0233 15.7342 9.83512 15.5968 9.58556C15.4595 9.33599 15.4219 9.0436 15.4917 8.76741L15.5439 8.60831L16.1172 7.21821C16.1735 7.08158 16.2561 6.95737 16.3604 6.85268C16.4647 6.74799 16.5885 6.66487 16.7249 6.60805C16.8613 6.55124 17.0076 6.52185 17.1553 6.52157C17.3031 6.52128 17.4494 6.55011 17.5861 6.6064Z" fill="#FFCD05"/>
</svg>
