<svg width="112" height="112" viewBox="0 0 112 112" fill="none" xmlns="http://www.w3.org/2000/svg">
<path d="M55.8955 10.0773C60.5991 10.0683 65.1263 11.8675 68.5406 15.1027C71.9548 18.3379 73.9951 22.7616 74.2392 27.4589L74.2639 28.3755L74.3275 59.2121L74.58 59.4775C78.254 63.4735 80.5399 68.5488 81.0977 73.9484L81.1964 75.2132L81.2309 76.4873C81.2383 80.5334 80.2715 84.5218 78.4124 88.1156C76.5533 91.7093 73.8565 94.8027 70.5498 97.1344C67.2431 99.4662 63.4237 100.968 59.4144 101.512C55.4051 102.056 51.3236 101.628 47.5149 100.262C43.7062 98.8967 40.2821 96.6343 37.532 93.6665C34.782 90.6986 32.7867 87.1123 31.7149 83.2108C30.643 79.3092 30.5261 75.2069 31.374 71.2506C32.2218 67.2943 34.0095 63.6003 36.5861 60.4805L37.4047 59.5394L37.6517 59.2777L37.5973 28.4456C37.5882 23.9029 39.266 19.5185 42.3056 16.1423C45.3451 12.7662 49.5298 10.6388 54.0486 10.1725L54.9789 10.1019L55.8955 10.0773ZM55.9131 19.2439C53.6004 19.2476 51.3747 20.1253 49.6819 21.701C47.9892 23.2768 46.9546 25.4341 46.7856 27.7406L46.764 28.4281L46.8305 63.2293L45.3069 64.598C42.9201 66.7408 41.2305 69.5499 40.4562 72.6626C39.682 75.7752 39.8586 79.0485 40.9633 82.0598C42.068 85.0711 44.05 87.682 46.6535 89.5556C49.2569 91.4291 52.3623 92.4791 55.5685 92.5701C58.7747 92.6611 61.9346 91.7888 64.6401 90.066C67.3456 88.3431 69.4725 85.8487 70.7462 82.9049C72.0199 79.9611 72.3818 76.7031 71.7853 73.5516C71.1888 70.4 69.6612 67.4996 67.3998 65.225L66.6973 64.5617L65.1684 63.1988L65.0973 28.393C65.0926 25.9619 64.1224 23.6322 62.4 21.9164C60.6776 20.2006 58.3442 19.2393 55.9131 19.2439ZM55.9481 37.5772C57.1637 37.5749 58.3304 38.0556 59.1916 38.9135C60.0528 39.7713 60.5379 40.9362 60.5402 42.1518L60.5859 66.0217C63.0006 67.0701 64.9806 68.9179 66.1931 71.2545C67.4056 73.5911 67.7766 76.2739 67.2437 78.8518C66.7108 81.4297 65.3065 83.7456 63.267 85.4099C61.2274 87.0742 58.677 87.9855 56.0446 87.9905C53.4121 87.9956 50.8582 87.094 48.8123 85.4375C46.7664 83.781 45.3533 81.4706 44.8105 78.8947C44.2677 76.3188 44.6285 73.6346 45.832 71.2934C47.0356 68.9522 49.0086 67.0969 51.4192 66.0393L51.3736 42.1693C51.3713 40.9537 51.8519 39.787 52.7098 38.9258C53.5677 38.0647 54.7326 37.5795 55.9481 37.5772Z" fill="#FAFAFA"/>
<path d="M55.9478 37.3243C57.1633 37.322 58.3301 37.8026 59.1912 38.6605C60.0524 39.5184 60.5375 40.6833 60.5399 41.8988L60.5855 65.7688C63.0002 66.8172 64.9803 68.665 66.1928 71.0015C67.4053 73.3381 67.7763 76.0209 67.2434 78.5989C66.7105 81.1768 65.3062 83.4926 63.2666 85.1569C61.227 86.8212 58.6766 87.7326 56.0442 87.7376C53.4117 87.7426 50.8579 86.8411 48.8119 85.1846C46.766 83.5281 45.3529 81.2176 44.8101 78.6418C44.2674 76.0659 44.6281 73.3817 45.8317 71.0405C47.0352 68.6993 49.0082 66.8439 51.4189 65.7863L51.3732 41.9164C51.3709 40.7008 51.8515 39.5341 52.7094 38.6729C53.5673 37.8117 54.7322 37.3266 55.9478 37.3243Z" fill="#FAFAFA"/>
</svg>
