<svg width="36" height="36" viewBox="0 0 36 36" fill="none" xmlns="http://www.w3.org/2000/svg">
<path d="M18 3C19.5394 3 21.0198 3.59165 22.1352 4.65259C23.2506 5.71352 23.9155 7.16256 23.9925 8.7L24 9L24.0015 19.092L24.084 19.179C25.2839 20.4891 26.0288 22.1515 26.208 23.919L26.2395 24.333L26.25 24.75C26.2499 26.0742 25.931 27.3789 25.3203 28.5539C24.7096 29.7288 23.8251 30.7395 22.7414 31.5006C21.6578 32.2616 20.4069 32.7506 19.0944 32.9263C17.7819 33.1019 16.4464 32.9591 15.2008 32.5098C13.9552 32.0605 12.836 31.3179 11.9378 30.3449C11.0397 29.3719 10.3889 28.197 10.0406 26.9194C9.69223 25.6419 9.65653 24.2992 9.93648 23.005C10.2164 21.7107 10.8038 20.5029 11.649 19.4835L11.9175 19.176L11.9985 19.0905L12 9C11.9999 7.51327 12.5517 6.07943 13.5486 4.97642C14.5455 3.87341 15.9163 3.17979 17.3955 3.03L17.7 3.0075L18 3ZM18 6C17.2431 5.99976 16.5142 6.28561 15.9592 6.80025C15.4042 7.31488 15.0643 8.02027 15.0075 8.775L15 9V20.3895L14.5005 20.8365C13.718 21.5363 13.1633 22.4546 12.908 23.4728C12.6526 24.491 12.7084 25.5623 13.068 26.5485C13.4277 27.5347 14.0747 28.3905 14.9256 29.0052C15.7764 29.62 16.7921 29.9656 17.8413 29.9974C18.8906 30.0292 19.9253 29.7457 20.8118 29.1835C21.6983 28.6214 22.3959 27.8064 22.8146 26.8438C23.2333 25.8811 23.3538 24.8151 23.1605 23.7833C22.9673 22.7515 22.4692 21.8014 21.7305 21.0555L21.501 20.838L21.0015 20.391L21 9C21 8.20435 20.6839 7.44129 20.1213 6.87868C19.5587 6.31607 18.7956 6 18 6ZM18 12C18.3978 12 18.7794 12.158 19.0607 12.4393C19.342 12.7206 19.5 13.1022 19.5 13.5V21.312C20.2896 21.6566 20.9365 22.2626 21.3318 23.028C21.7272 23.7935 21.8469 24.6717 21.6709 25.5151C21.4949 26.3584 21.0338 27.1155 20.3653 27.6589C19.6968 28.2023 18.8615 28.4989 18 28.4989C17.1385 28.4989 16.3032 28.2023 15.6347 27.6589C14.9662 27.1155 14.5051 26.3584 14.3291 25.5151C14.1531 24.6717 14.2728 23.7935 14.6682 23.028C15.0635 22.2626 15.7104 21.6566 16.5 21.312V13.5C16.5 13.1022 16.658 12.7206 16.9393 12.4393C17.2206 12.158 17.6022 12 18 12Z" fill="#FAFAFA"/>
<path d="M18 11.917C18.3978 11.917 18.7794 12.075 19.0607 12.3563C19.342 12.6376 19.5 13.0192 19.5 13.417V21.229C20.2896 21.5736 20.9365 22.1796 21.3318 22.945C21.7272 23.7105 21.8469 24.5887 21.6709 25.4321C21.4949 26.2754 21.0338 27.0325 20.3653 27.5759C19.6968 28.1193 18.8615 28.4159 18 28.4159C17.1385 28.4159 16.3032 28.1193 15.6347 27.5759C14.9662 27.0325 14.5051 26.2754 14.3291 25.4321C14.1531 24.5887 14.2728 23.7105 14.6682 22.945C15.0635 22.1796 15.7104 21.5736 16.5 21.229V13.417C16.5 13.0192 16.658 12.6376 16.9393 12.3563C17.2206 12.075 17.6022 11.917 18 11.917Z" fill="#FAFAFA"/>
</svg>
