<svg width="37" height="37" viewBox="0 0 37 37" fill="none" xmlns="http://www.w3.org/2000/svg">
<path d="M14.8844 7.41056C15.2322 7.05937 15.6614 6.79954 16.1338 6.65418C16.6062 6.50882 17.1072 6.48244 17.5922 6.57737C18.0773 6.6723 18.5314 6.8856 18.9141 7.19832C19.2969 7.51104 19.5965 7.91348 19.7862 8.36988C19.9759 8.82627 20.05 9.32247 20.0017 9.81437C19.9535 10.3063 19.7844 10.7786 19.5096 11.1895C19.2348 11.6003 18.8628 11.9369 18.4266 12.1692C17.9903 12.4016 17.5035 12.5226 17.0092 12.5215L3.50922 12.5473M19.4269 29.6319C19.776 29.9818 20.2062 30.24 20.6792 30.3835C21.1521 30.5271 21.6532 30.5515 22.1379 30.4547C22.6226 30.358 23.0759 30.1429 23.4574 29.8287C23.839 29.5146 24.137 29.111 24.325 28.6539C24.513 28.1967 24.5851 27.7003 24.535 27.2085C24.4849 26.7168 24.314 26.2451 24.0377 25.8353C23.7613 25.4256 23.3879 25.0904 22.9508 24.8597C22.5137 24.629 22.0264 24.5099 21.5321 24.5129L3.53217 24.5473M27.1034 12.0972C27.5388 11.6612 28.075 11.3392 28.6645 11.1597C29.254 10.9803 29.8786 10.9488 30.4832 11.0682C31.0877 11.1875 31.6535 11.454 32.1305 11.8441C32.6076 12.2342 32.9811 12.7358 33.2182 13.3045C33.4552 13.8733 33.5485 14.4918 33.4896 15.1052C33.4308 15.7186 33.2217 16.308 32.8809 16.8214C32.54 17.3347 32.0779 17.7562 31.5355 18.0485C30.993 18.3407 30.3868 18.4948 29.7706 18.4971L3.52069 18.5473" stroke="#FAFAFA" stroke-width="2" stroke-linecap="round" stroke-linejoin="round"/>
</svg>
