<svg width="36" height="36" viewBox="0 0 36 36" fill="none" xmlns="http://www.w3.org/2000/svg">
<path d="M14.385 6.88497C14.7335 6.53444 15.1631 6.27544 15.6358 6.13099C16.1085 5.98653 16.6095 5.9611 17.0944 6.05696C17.5793 6.15282 18.033 6.36699 18.4151 6.68044C18.7973 6.99389 19.0961 7.39691 19.2849 7.85366C19.4738 8.31042 19.5469 8.80676 19.4977 9.29857C19.4485 9.79038 19.2786 10.2624 19.003 10.6727C18.7274 11.083 18.3547 11.4189 17.918 11.6504C17.4814 11.882 16.9943 12.002 16.5 12H3M18.885 29.115C19.2335 29.4655 19.6631 29.7245 20.1358 29.869C20.6085 30.0134 21.1095 30.0388 21.5944 29.943C22.0793 29.8471 22.533 29.633 22.9151 29.3195C23.2973 29.0061 23.5961 28.603 23.7849 28.1463C23.9738 27.6895 24.0469 27.1932 23.9977 26.7014C23.9485 26.2096 23.7786 25.7375 23.503 25.3272C23.2274 24.9169 22.8547 24.5811 22.418 24.3495C21.9814 24.118 21.4943 23.9979 21 24H3M26.595 11.595C27.0313 11.1598 27.5681 10.8388 28.1579 10.6605C28.7477 10.4821 29.3724 10.4519 29.9767 10.5724C30.581 10.6929 31.1463 10.9605 31.6226 11.3515C32.0989 11.7425 32.4715 12.2448 32.7075 12.814C32.9434 13.3832 33.0355 14.0019 32.9755 14.6151C32.9155 15.2284 32.7053 15.8175 32.3634 16.3302C32.0216 16.8429 31.5587 17.2635 31.0157 17.5547C30.4726 17.8459 29.8662 17.9989 29.25 18H3" stroke="#FAFAFA" stroke-width="3" stroke-linecap="round" stroke-linejoin="round"/>
</svg>
