<svg width="273" height="44" viewBox="0 0 273 44" fill="none" xmlns="http://www.w3.org/2000/svg">
<path d="M161.813 30.1839H171.221V28.5081H163.753V23.9217H169.075V22.2752H163.753V18.512H171.221V16.8362H161.813V30.1839ZM174.866 25.8327V16.1012L173.073 16.8362V26.2443C173.073 27.9201 173.514 29.7429 175.396 30.5955L176.366 29.2725C175.19 28.6257 174.837 27.7143 174.866 25.8327ZM181.864 20.2172C179.012 20.2172 177.424 21.452 177.424 25.3035C177.424 29.3019 179.159 30.4779 182.04 30.4779C182.951 30.4779 184.363 30.2427 185.333 29.9487L185.01 28.4493C184.216 28.7139 182.951 28.9197 182.246 28.9197C180.276 28.9197 179.365 28.3905 179.365 25.7445H186.009V25.2741C185.98 21.2168 184.686 20.2172 181.864 20.2172ZM179.365 24.2451C179.512 22.3046 180.129 21.746 181.893 21.746C183.451 21.746 184.01 22.187 184.098 24.2451H179.365ZM191.066 28.8609C189.831 28.8609 189.449 28.2435 189.449 26.8323V22.0988H192.859V20.4818H189.449V17.8946L187.626 18.6296V26.9205C187.626 29.8017 188.596 30.4485 190.801 30.4485C191.595 30.4485 192.595 30.2427 193.183 30.0369L192.83 28.5375C192.33 28.7433 191.742 28.8609 191.066 28.8609ZM196.27 21.1874V20.4818H194.447V30.2133H196.27V23.1279C196.27 22.3928 197.446 21.9518 198.739 21.9518C199.151 21.9518 199.533 21.9812 199.857 22.04V20.3936C199.533 20.3642 199.18 20.3348 198.857 20.3348C197.475 20.3348 196.593 20.6876 196.27 21.1874ZM223.524 21.1874V20.4818H221.701V30.2133H223.524V23.1279C223.524 22.3928 224.7 21.9518 225.994 21.9518C226.405 21.9518 226.787 21.9812 227.111 22.04V20.3936C226.787 20.3642 226.435 20.3348 226.111 20.3348C224.729 20.3348 223.847 20.6876 223.524 21.1874ZM205.178 20.2172C202.121 20.2172 200.651 21.3344 200.651 25.3035C200.651 29.3019 202.121 30.4779 205.178 30.4779C208.265 30.4779 209.706 29.3019 209.706 25.3035C209.706 21.3344 208.236 20.2172 205.178 20.2172ZM205.178 28.9197C203.208 28.9197 202.562 28.2435 202.562 25.3035C202.562 22.2458 203.208 21.7166 205.178 21.7166C207.148 21.7166 207.795 22.2458 207.795 25.3035C207.795 28.2435 207.148 28.9197 205.178 28.9197ZM215.88 20.2172C214.645 20.2172 213.792 20.57 213.293 20.9228V16.0718L211.47 16.8362V29.7429C212.528 30.1839 214.263 30.4779 215.586 30.4779C218.702 30.4779 220.114 29.3313 220.114 25.3329C220.084 21.3638 218.732 20.2172 215.88 20.2172ZM215.556 28.8903C214.763 28.8903 213.939 28.7727 213.263 28.5375V23.1279C213.263 22.481 213.763 21.8342 215.556 21.8342C217.497 21.8342 218.173 22.5398 218.173 25.3329C218.203 28.3611 217.556 28.8903 215.556 28.8903ZM231.991 20.0702C230.639 20.0702 229.433 20.4524 228.581 20.6582L229.081 22.04C229.874 21.746 230.786 21.6284 231.785 21.6284C233.902 21.6284 234.343 22.2458 234.343 24.2745C233.432 24.0687 232.668 23.9805 231.756 23.9805C229.522 23.9805 227.934 24.4215 227.934 27.1851C227.934 29.7135 229.022 30.4485 231.962 30.4485C233.256 30.4485 234.961 30.1545 236.107 29.6841V23.9805C236.078 21.0404 234.843 20.0702 231.991 20.0702ZM234.314 28.5963C233.667 28.8315 232.844 28.9785 232.021 28.9785C230.286 28.9785 229.845 28.7433 229.845 27.0969C229.845 25.5975 230.404 25.4211 232.05 25.4211C232.873 25.4211 233.697 25.4799 234.314 25.6269V28.5963ZM241.782 24.4509C240.106 24.3039 239.577 23.9805 239.577 23.1572C239.577 21.9518 240.312 21.7166 241.693 21.7166C242.664 21.7166 243.722 21.9518 244.486 22.2164C244.633 21.6872 244.81 21.1874 244.957 20.717C243.928 20.3936 242.693 20.1878 241.723 20.1878C239.224 20.1878 237.724 20.8934 237.724 23.3042C237.724 25.2447 238.959 25.8033 241.194 25.9797C242.987 26.1267 243.428 26.5383 243.428 27.3909C243.428 28.5669 242.752 28.8903 241.282 28.8903C240.312 28.8903 238.989 28.6551 238.283 28.3905L237.842 29.9193C238.783 30.2133 240.341 30.4485 241.341 30.4485C243.869 30.4485 245.28 29.7135 245.28 27.3027C245.28 25.4505 244.222 24.6861 241.782 24.4509Z" fill="#007AC2"/>
<path d="M143.054 23.4218C139.056 17.8064 139.232 10.9855 141.614 4.39982C142.849 2.6064 144.377 1.31278 146.259 0.518975C146.759 0.254372 146.994 0.607174 146.965 0.783576C145.73 8.10426 147.906 11.4853 150.346 14.3371C149.023 18.7178 146.465 21.7166 143.054 23.4218Z" fill="#CBDB2A"/>
<path d="M151.875 30.4775C146.7 34.0349 139.232 33.7115 130.442 28.5958C129.354 27.361 128.942 26.5378 128.384 24.8914C128.325 24.4798 128.442 24.1564 128.825 24.2446C134.234 25.6558 139.115 25.3618 143.054 23.4214C144.965 26.0968 147.847 28.5076 151.875 30.4775Z" fill="#007AC2"/>
<path d="M151.875 30.4781C154.05 28.8023 155.52 25.8328 155.432 23.128C155.344 19.5118 153.168 17.4243 150.346 14.3667C149.023 18.7179 146.465 21.7462 143.025 23.4514C144.966 26.0974 147.847 28.5083 151.875 30.4781Z" fill="#00A84F"/>
<path d="M103.955 20.2808H98.0536C98.0226 19.9171 97.8949 19.6037 97.6703 19.3406C97.4457 19.0775 97.1553 18.8763 96.7991 18.737C96.4506 18.59 96.0634 18.5165 95.6374 18.5165C95.0876 18.5165 94.6152 18.6171 94.2203 18.8183C93.8253 19.0195 93.6317 19.3058 93.6395 19.6772C93.6317 19.9403 93.744 20.1841 93.9763 20.4085C94.2164 20.6329 94.6772 20.807 95.3587 20.9308L98.9829 21.5808C100.811 21.9135 102.17 22.4746 103.06 23.2639C103.958 24.0454 104.412 25.0939 104.419 26.4094C104.412 27.6785 104.032 28.7812 103.281 29.7175C102.537 30.6461 101.519 31.3657 100.226 31.8765C98.9403 32.3794 97.4728 32.6309 95.8233 32.6309C93.0974 32.6309 90.9639 32.0738 89.4228 30.9595C87.8895 29.8452 87.0337 28.3749 86.8556 26.5487H93.2213C93.3065 27.1136 93.5853 27.5508 94.0576 27.8603C94.5378 28.1621 95.1418 28.313 95.8698 28.313C96.4583 28.313 96.9423 28.2124 97.3218 28.0112C97.709 27.81 97.9065 27.5237 97.9142 27.1523C97.9065 26.8118 97.7361 26.541 97.4031 26.3398C97.0779 26.1386 96.5667 25.9761 95.8698 25.8523L92.7102 25.2951C90.8903 24.9779 89.5273 24.3743 88.6213 23.4844C87.7152 22.5945 87.2661 21.4492 87.2738 20.0486C87.2661 18.8105 87.5913 17.762 88.2496 16.9031C88.9156 16.0364 89.8642 15.3786 91.0955 14.9298C92.3346 14.4733 93.8021 14.245 95.498 14.245C98.0768 14.245 100.11 14.7789 101.597 15.8468C103.091 16.9147 103.877 18.3927 103.955 20.2808Z" fill="#47A0D7"/>
<path d="M76.4523 32.6309C74.5162 32.6309 72.859 32.2479 71.4805 31.4818C70.1021 30.708 69.045 29.6324 68.3093 28.255C67.5736 26.8698 67.2058 25.2642 67.2058 23.438C67.2058 21.6117 67.5736 20.0099 68.3093 18.6325C69.045 17.2474 70.1021 16.1718 71.4805 15.4057C72.859 14.6319 74.5162 14.245 76.4523 14.245C78.3883 14.245 80.0455 14.6319 81.424 15.4057C82.8024 16.1718 83.8595 17.2474 84.5952 18.6325C85.3309 20.0099 85.6987 21.6117 85.6987 23.438C85.6987 25.2642 85.3309 26.8698 84.5952 28.255C83.8595 29.6324 82.8024 30.708 81.424 31.4818C80.0455 32.2479 78.3883 32.6309 76.4523 32.6309ZM76.4987 27.8952C77.0408 27.8952 77.5093 27.7133 77.9043 27.3496C78.2992 26.9859 78.6051 26.4675 78.822 25.7942C79.0388 25.121 79.1472 24.3201 79.1472 23.3915C79.1472 22.4552 79.0388 21.6543 78.822 20.9888C78.6051 20.3156 78.2992 19.7971 77.9043 19.4335C77.5093 19.0698 77.0408 18.8879 76.4987 18.8879C75.9257 18.8879 75.4339 19.0698 75.0235 19.4335C74.613 19.7971 74.2994 20.3156 74.0826 20.9888C73.8657 21.6543 73.7573 22.4552 73.7573 23.3915C73.7573 24.3201 73.8657 25.121 74.0826 25.7942C74.2994 26.4675 74.613 26.9859 75.0235 27.3496C75.4339 27.7133 75.9257 27.8952 76.4987 27.8952Z" fill="#47A0D7"/>
<path d="M37.7477 32.3059V14.4771H43.8346V17.8665H44.0204C44.3921 16.7522 45.0272 15.87 45.9255 15.22C46.8238 14.57 47.8925 14.245 49.1315 14.245C50.3861 14.245 51.4664 14.5777 52.3724 15.2432C53.2785 15.901 53.8245 16.7754 54.0103 17.8665H54.1962C54.4982 16.7754 55.141 15.901 56.1245 15.2432C57.108 14.5777 58.2618 14.245 59.5861 14.245C61.2975 14.245 62.6837 14.7944 63.7447 15.8932C64.8133 16.9921 65.3477 18.4546 65.3477 20.2808V32.3059H58.9356V21.9058C58.9356 21.1242 58.7381 20.5129 58.3431 20.0719C57.9482 19.623 57.4177 19.3986 56.7517 19.3986C56.0935 19.3986 55.5708 19.623 55.1835 20.0719C54.8041 20.5129 54.6144 21.1242 54.6144 21.9058V32.3059H48.481V21.9058C48.481 21.1242 48.2835 20.5129 47.8886 20.0719C47.4936 19.623 46.9632 19.3986 46.2972 19.3986C45.8558 19.3986 45.4763 19.4992 45.1588 19.7004C44.8413 19.9016 44.5935 20.1918 44.4154 20.571C44.245 20.9424 44.1598 21.3873 44.1598 21.9058V32.3059H37.7477Z" fill="#47A0D7"/>
<path d="M35.7844 14.4771V19.1201H24.0289V14.4771H35.7844ZM26.3056 10.2057H32.7178V26.5719C32.7178 26.8195 32.7604 27.0285 32.8456 27.1987C32.9307 27.3612 33.0624 27.485 33.2405 27.5702C33.4186 27.6475 33.6471 27.6862 33.9259 27.6862C34.1195 27.6862 34.344 27.663 34.5996 27.6166C34.8629 27.5702 35.0565 27.5315 35.1804 27.5005L36.1097 32.0041C35.8232 32.0893 35.4127 32.1937 34.8784 32.3175C34.3518 32.4413 33.7245 32.5226 32.9966 32.5613C31.5252 32.6387 30.29 32.4878 29.291 32.1086C28.292 31.7217 27.5408 31.1142 27.0375 30.2863C26.5341 29.4583 26.2902 28.4214 26.3056 27.1755V10.2057Z" fill="#47A0D7"/>
<path d="M6.9697 32.3059H0L7.85253 8.53418H16.6808L24.5333 32.3059H17.5636L12.3596 15.0807H12.1737L6.9697 32.3059ZM5.66869 22.9272H18.7717V27.7558H5.66869V22.9272Z" fill="#47A0D7"/>
<line x1="271" y1="0.5" x2="271" y2="43.5" stroke="#00A61C" stroke-width="4"/>
</svg>
