<svg width="118" height="33" viewBox="0 0 118 33" fill="none" xmlns="http://www.w3.org/2000/svg">
<path d="M33.8126 30.1839H43.2207V28.5081H35.753V23.9217H41.0745V22.2752H35.753V18.512H43.2207V16.8362H33.8126V30.1839ZM46.8664 25.8327V16.1012L45.073 16.8362V26.2443C45.073 27.9201 45.514 29.7429 47.3956 30.5955L48.3658 29.2725C47.1898 28.6257 46.837 27.7143 46.8664 25.8327ZM53.8637 20.2172C51.0118 20.2172 49.4242 21.452 49.4242 25.3035C49.4242 29.3019 51.1588 30.4779 54.0401 30.4779C54.9515 30.4779 56.3627 30.2427 57.3329 29.9487L57.0095 28.4493C56.2157 28.7139 54.9515 28.9197 54.2459 28.9197C52.2761 28.9197 51.3646 28.3905 51.3646 25.7445H58.0091V25.2741C57.9797 21.2168 56.6861 20.2172 53.8637 20.2172ZM51.3646 24.2451C51.5116 22.3046 52.129 21.746 53.8931 21.746C55.4513 21.746 56.0099 22.187 56.0981 24.2451H51.3646ZM63.066 28.8609C61.8312 28.8609 61.449 28.2435 61.449 26.8323V22.0988H64.8594V20.4818H61.449V17.8946L59.6261 18.6296V26.9205C59.6261 29.8017 60.5964 30.4485 62.8014 30.4485C63.5952 30.4485 64.5948 30.2427 65.1828 30.0369L64.83 28.5375C64.3302 28.7433 63.7422 28.8609 63.066 28.8609ZM68.2699 21.1874V20.4818H66.447V30.2133H68.2699V23.1279C68.2699 22.3928 69.4459 21.9518 70.7395 21.9518C71.1511 21.9518 71.5333 21.9812 71.8567 22.04V20.3936C71.5333 20.3642 71.1805 20.3348 70.8571 20.3348C69.4753 20.3348 68.5933 20.6876 68.2699 21.1874ZM95.524 21.1874V20.4818H93.7012V30.2133H95.524V23.1279C95.524 22.3928 96.7 21.9518 97.9936 21.9518C98.4052 21.9518 98.7874 21.9812 99.1108 22.04V20.3936C98.7874 20.3642 98.4346 20.3348 98.1112 20.3348C96.7294 20.3348 95.8474 20.6876 95.524 21.1874ZM77.1782 20.2172C74.1205 20.2172 72.6505 21.3344 72.6505 25.3035C72.6505 29.3019 74.1205 30.4779 77.1782 30.4779C80.2652 30.4779 81.7058 29.3019 81.7058 25.3035C81.7058 21.3344 80.2358 20.2172 77.1782 20.2172ZM77.1782 28.9197C75.2083 28.9197 74.5615 28.2435 74.5615 25.3035C74.5615 22.2458 75.2083 21.7166 77.1782 21.7166C79.148 21.7166 79.7948 22.2458 79.7948 25.3035C79.7948 28.2435 79.148 28.9197 77.1782 28.9197ZM87.8799 20.2172C86.6451 20.2172 85.7925 20.57 85.2927 20.9228V16.0718L83.4698 16.8362V29.7429C84.5283 30.1839 86.2629 30.4779 87.5859 30.4779C90.7023 30.4779 92.1135 29.3313 92.1135 25.3329C92.0841 21.3638 90.7317 20.2172 87.8799 20.2172ZM87.5565 28.8903C86.7627 28.8903 85.9395 28.7727 85.2633 28.5375V23.1279C85.2633 22.481 85.7631 21.8342 87.5565 21.8342C89.4969 21.8342 90.1731 22.5398 90.1731 25.3329C90.2025 28.3611 89.5557 28.8903 87.5565 28.8903ZM103.991 20.0702C102.639 20.0702 101.433 20.4524 100.581 20.6582L101.081 22.04C101.874 21.746 102.786 21.6284 103.785 21.6284C105.902 21.6284 106.343 22.2458 106.343 24.2745C105.432 24.0687 104.668 23.9805 103.756 23.9805C101.522 23.9805 99.9341 24.4215 99.9341 27.1851C99.9341 29.7135 101.022 30.4485 103.962 30.4485C105.256 30.4485 106.961 30.1545 108.107 29.6841V23.9805C108.078 21.0404 106.843 20.0702 103.991 20.0702ZM106.314 28.5963C105.667 28.8315 104.844 28.9785 104.021 28.9785C102.286 28.9785 101.845 28.7433 101.845 27.0969C101.845 25.5975 102.404 25.4211 104.05 25.4211C104.873 25.4211 105.697 25.4799 106.314 25.6269V28.5963ZM113.782 24.4509C112.106 24.3039 111.577 23.9805 111.577 23.1572C111.577 21.9518 112.312 21.7166 113.693 21.7166C114.664 21.7166 115.722 21.9518 116.486 22.2164C116.633 21.6872 116.81 21.1874 116.957 20.717C115.928 20.3936 114.693 20.1878 113.723 20.1878C111.224 20.1878 109.724 20.8934 109.724 23.3042C109.724 25.2447 110.959 25.8033 113.194 25.9797C114.987 26.1267 115.428 26.5383 115.428 27.3909C115.428 28.5669 114.752 28.8903 113.282 28.8903C112.312 28.8903 110.989 28.6551 110.283 28.3905L109.842 29.9193C110.783 30.2133 112.341 30.4485 113.341 30.4485C115.869 30.4485 117.28 29.7135 117.28 27.3027C117.28 25.4505 116.222 24.6861 113.782 24.4509Z" fill="#007AC2"/>
<path d="M15.0545 23.4218C11.056 17.8064 11.2324 10.9855 13.6138 4.39982C14.8487 2.6064 16.3775 1.31278 18.2591 0.518975C18.7589 0.254372 18.9941 0.607174 18.9647 0.783576C17.7299 8.10426 19.9055 11.4853 22.3458 14.3371C21.0227 18.7178 18.4649 21.7166 15.0545 23.4218Z" fill="#CBDB2A"/>
<path d="M23.8745 30.4775C18.7001 34.0349 11.2324 33.7115 2.44166 28.5958C1.35385 27.361 0.942246 26.5378 0.383639 24.8914C0.324838 24.4798 0.44244 24.1564 0.824645 24.2446C6.23431 25.6558 11.1148 25.3618 15.0544 23.4214C16.9655 26.0968 19.8467 28.5076 23.8745 30.4775Z" fill="#007AC2"/>
<path d="M23.8746 30.4781C26.0502 28.8023 27.5202 25.8328 27.432 23.128C27.3438 19.5118 25.1682 17.4243 22.3458 14.3667C21.0228 18.7179 18.4649 21.7462 15.0251 23.4514C16.9655 26.0974 19.8467 28.5083 23.8746 30.4781Z" fill="#00A84F"/>
</svg>
