<svg width="31" height="29" viewBox="0 0 31 29" fill="none" xmlns="http://www.w3.org/2000/svg">
<path fill-rule="evenodd" clip-rule="evenodd" d="M18.0781 4.18929C16.564 3.96238 15.0149 4.23519 13.6807 4.96372C12.8439 5.42067 12.1222 6.0402 11.557 6.77688C12.1128 7.09369 12.6282 7.47922 13.0892 7.92666C13.7533 8.57125 13.7513 9.61438 13.0846 10.2565C12.418 10.8987 11.3392 10.8967 10.675 10.2522C10.1455 9.73823 9.48649 9.37174 8.76727 9.18628C8.75311 9.18314 8.73896 9.17982 8.72482 9.17632C7.69918 8.92243 6.61251 9.04695 5.67666 9.52559C4.7408 10.0042 4.02283 10.8027 3.6627 11.7654C3.30258 12.728 3.32611 13.7858 3.72872 14.7326C4.13132 15.6794 4.88414 16.4472 5.84042 16.8865C6.69039 17.277 7.05207 18.2597 6.64825 19.0816C6.24443 19.9034 5.22804 20.2531 4.37807 19.8627C2.65677 19.072 1.3017 17.6898 0.577006 15.9856C-0.147683 14.2814 -0.190045 12.3773 0.45818 10.6446C1.1064 8.91181 2.39875 7.47457 4.0833 6.613C5.34723 5.96656 6.76398 5.67898 8.17249 5.7687C9.08255 4.24126 10.4031 2.96935 12.005 2.09465C14.006 1.00205 16.3292 0.592903 18.6 0.933201C20.8709 1.2735 22.9571 2.3434 24.5221 3.97039C25.8366 5.3369 26.7191 7.02951 27.0786 8.84859C27.6189 9.10346 28.1212 9.43159 28.5694 9.82459C29.3085 10.4725 29.8804 11.2787 30.2394 12.1786C30.5984 13.0786 30.7346 14.0473 30.637 15.0073C30.5394 15.9672 30.2107 16.8917 29.6773 17.7069C29.1742 18.4757 28.1216 18.7047 27.3264 18.2182C26.5312 17.7317 26.2945 16.714 26.7976 15.9451C27.0466 15.5646 27.2 15.133 27.2456 14.6849C27.2912 14.2368 27.2276 13.7846 27.06 13.3645C26.8924 12.9444 26.6254 12.568 26.2805 12.2656C25.9355 11.9631 25.522 11.743 25.0733 11.6227C24.3846 11.4381 23.8882 10.8577 23.8301 10.1689C23.7056 8.6923 23.0704 7.29925 22.0268 6.21441C20.9833 5.12958 19.5923 4.41619 18.0781 4.18929ZM11.3137 14.0056C12.2452 14.1342 12.8926 14.9687 12.7595 15.8694L11.2993 25.7543C11.1662 26.655 10.3032 27.2809 9.37163 27.1523C8.44007 27.0236 7.79275 26.1891 7.92581 25.2884L9.38602 15.4035C9.51908 14.5028 10.3821 13.8769 11.3137 14.0056ZM23.2407 14.0056C24.1723 14.1342 24.8196 14.9687 24.6865 15.8694L23.2263 25.7543C23.0933 26.655 22.2302 27.2809 21.2987 27.1523C20.3671 27.0236 19.7198 26.1891 19.8528 25.2884L21.3131 15.4035C21.4461 14.5028 22.3092 13.8769 23.2407 14.0056ZM17.0336 15.653C17.9651 15.7817 18.6124 16.6162 18.4794 17.5169L17.0192 27.4018C16.8861 28.3025 16.0231 28.9284 15.0915 28.7998C14.1599 28.6711 13.5126 27.8366 13.6457 26.9359L15.1059 17.051C15.2389 16.1503 16.102 15.5244 17.0336 15.653Z" fill="#303036"/>
</svg>
