<svg width="50" height="50" viewBox="0 0 50 50" fill="none" xmlns="http://www.w3.org/2000/svg">
<rect x="0.333984" y="0.149872" width="49.3333" height="49.3333" rx="24.6667" fill="#FF8A00"/>
<path fill-rule="evenodd" clip-rule="evenodd" d="M29.0781 14.1893C27.564 13.9624 26.0149 14.2352 24.6807 14.9637C23.8439 15.4207 23.1222 16.0402 22.557 16.7769C23.1128 17.0937 23.6282 17.4792 24.0892 17.9267C24.7533 18.5713 24.7513 19.6144 24.0846 20.2565C23.418 20.8987 22.3392 20.8967 21.675 20.2522C21.1455 19.7382 20.4865 19.3717 19.7673 19.1863C19.7531 19.1831 19.739 19.1798 19.7248 19.1763C18.6992 18.9224 17.6125 19.0469 16.6767 19.5256C15.7408 20.0042 15.0228 20.8027 14.6627 21.7654C14.3026 22.728 14.3261 23.7858 14.7287 24.7326C15.1313 25.6794 15.8841 26.4472 16.8404 26.8865C17.6904 27.277 18.0521 28.2597 17.6482 29.0816C17.2444 29.9034 16.228 30.2531 15.3781 29.8627C13.6568 29.072 12.3017 27.6898 11.577 25.9856C10.8523 24.2814 10.81 22.3773 11.4582 20.6446C12.1064 18.9118 13.3988 17.4746 15.0833 16.613C16.3472 15.9666 17.764 15.679 19.1725 15.7687C20.0825 14.2413 21.4031 12.9693 23.005 12.0947C25.006 11.002 27.3292 10.5929 29.6 10.9332C31.8709 11.2735 33.9571 12.3434 35.5221 13.9704C36.8366 15.3369 37.7191 17.0295 38.0786 18.8486C38.6189 19.1035 39.1212 19.4316 39.5694 19.8246C40.3085 20.4725 40.8804 21.2787 41.2394 22.1786C41.5984 23.0786 41.7346 24.0473 41.637 25.0073C41.5394 25.9672 41.2107 26.8917 40.6773 27.7069C40.1742 28.4757 39.1216 28.7047 38.3264 28.2182C37.5312 27.7317 37.2945 26.714 37.7976 25.9451C38.0466 25.5646 38.2 25.133 38.2456 24.6849C38.2912 24.2368 38.2276 23.7846 38.06 23.3645C37.8924 22.9444 37.6254 22.568 37.2805 22.2656C36.9355 21.9631 36.522 21.743 36.0733 21.6227C35.3846 21.4381 34.8882 20.8577 34.8301 20.1689C34.7056 18.6923 34.0704 17.2992 33.0268 16.2144C31.9833 15.1296 30.5923 14.4162 29.0781 14.1893ZM22.3137 24.0056C23.2452 24.1342 23.8926 24.9687 23.7595 25.8694L22.2993 35.7543C22.1662 36.655 21.3032 37.2809 20.3716 37.1523C19.4401 37.0236 18.7928 36.1891 18.9258 35.2884L20.386 25.4035C20.5191 24.5028 21.3821 23.8769 22.3137 24.0056ZM34.2407 24.0056C35.1723 24.1342 35.8196 24.9687 35.6865 25.8694L34.2263 35.7543C34.0933 36.655 33.2302 37.2809 32.2987 37.1523C31.3671 37.0236 30.7198 36.1891 30.8528 35.2884L32.3131 25.4035C32.4461 24.5028 33.3092 23.8769 34.2407 24.0056ZM28.0336 25.653C28.9651 25.7817 29.6124 26.6162 29.4794 27.5169L28.0192 37.4018C27.8861 38.3025 27.0231 38.9284 26.0915 38.7998C25.1599 38.6711 24.5126 37.8366 24.6457 36.9359L26.1059 27.051C26.2389 26.1503 27.102 25.5244 28.0336 25.653Z" fill="#303036"/>
</svg>
