<svg width="29" height="29" viewBox="0 0 29 29" fill="none" xmlns="http://www.w3.org/2000/svg">
<path d="M24.6671 11.5416H28.667V13.4916H24.6671V11.5416ZM21.6672 6.26294L24.4951 3.50564L25.9091 4.88429L23.0812 7.64159L21.6672 6.26294ZM21.6672 18.7702L23.0812 17.3916L25.9091 20.1489L24.4951 21.5275L21.6672 18.7702ZM15.6674 0.816589H17.6673V4.71659H15.6674V0.816589ZM16.6674 6.66659C16.3321 6.66872 15.9976 6.69807 15.6674 6.75434V8.75504C15.9933 8.66743 16.3293 8.6209 16.6674 8.61659C17.7282 8.61659 18.7456 9.02748 19.4957 9.75887C20.2458 10.4903 20.6672 11.4822 20.6672 12.5166C20.6672 13.5509 20.2458 14.5429 19.4957 15.2743C18.7456 16.0057 17.7282 16.4166 16.6674 16.4166V18.3666C18.2586 18.3666 19.7847 17.7503 20.9099 16.6532C22.0351 15.5561 22.6672 14.0681 22.6672 12.5166C22.6672 10.9651 22.0351 9.4771 20.9099 8.38002C19.7847 7.28293 18.2586 6.66659 16.6674 6.66659ZM8.66761 18.546V5.69159H6.66768V18.546C6.00048 18.776 5.43816 19.2286 5.08009 19.8237C4.72203 20.4189 4.59127 21.1183 4.71094 21.7983C4.83061 22.4784 5.19299 23.0953 5.73404 23.54C6.2751 23.9848 6.95998 24.2287 7.66764 24.2287C8.37531 24.2287 9.06019 23.9848 9.60124 23.54C10.1423 23.0953 10.5047 22.4784 10.6243 21.7983C10.744 21.1183 10.6133 20.4189 10.2552 19.8237C9.89713 19.2286 9.33481 18.776 8.66761 18.546Z" fill="#303036"/>
<path d="M7.66764 28.1166C6.28966 28.1181 4.94194 27.7226 3.7937 26.9798C2.64547 26.237 1.74792 25.1799 1.21376 23.9414C0.679595 22.7029 0.532634 21.3381 0.791327 20.0184C1.05002 18.6987 1.70284 17.483 2.6678 16.5238V5.69159C2.6678 4.39866 3.19457 3.15868 4.13222 2.24444C5.06987 1.3302 6.3416 0.816589 7.66764 0.816589C8.99369 0.816589 10.2654 1.3302 11.2031 2.24444C12.1407 3.15868 12.6675 4.39866 12.6675 5.69159V16.5238C13.6325 17.483 14.2853 18.6987 14.544 20.0184C14.8027 21.3381 14.6557 22.7029 14.1215 23.9414C13.5874 25.1799 12.6898 26.237 11.5416 26.9798C10.3934 27.7226 9.04563 28.1181 7.66764 28.1166ZM7.66764 2.76659C6.87226 2.76736 6.10969 3.07578 5.54727 3.62416C4.98485 4.17253 4.66853 4.91607 4.66774 5.69159V17.375L4.33575 17.6665C3.58065 18.3246 3.04831 19.1907 2.80918 20.1502C2.57005 21.1098 2.63541 22.1175 2.99661 23.04C3.35781 23.9625 3.99782 24.7563 4.83192 25.3164C5.66603 25.8764 6.6549 26.1763 7.66764 26.1763C8.68039 26.1763 9.66926 25.8764 10.5034 25.3164C11.3375 24.7563 11.9775 23.9625 12.3387 23.04C12.6999 22.1175 12.7652 21.1098 12.5261 20.1502C12.287 19.1907 11.7546 18.3246 10.9995 17.6665L10.6676 17.375V5.69159C10.6668 4.91607 10.3504 4.17253 9.78802 3.62416C9.2256 3.07578 8.46303 2.76736 7.66764 2.76659Z" fill="#303036"/>
</svg>
