<svg width="50" height="51" viewBox="0 0 50 51" fill="none" xmlns="http://www.w3.org/2000/svg">
<rect x="0.333984" y="0.816559" width="49.3333" height="49.3333" rx="24.6667" fill="#FF8A00"/>
<path d="M37.6671 23.5416H41.667V25.4916H37.6671V23.5416ZM34.6672 18.2629L37.4951 15.5056L38.9091 16.8843L36.0812 19.6416L34.6672 18.2629ZM34.6672 30.7702L36.0812 29.3916L38.9091 32.1489L37.4951 33.5275L34.6672 30.7702ZM28.6674 12.8166H30.6673V16.7166H28.6674V12.8166ZM29.6674 18.6666C29.3321 18.6687 28.9976 18.6981 28.6674 18.7543V20.755C28.9933 20.6674 29.3293 20.6209 29.6674 20.6166C30.7282 20.6166 31.7456 21.0275 32.4957 21.7589C33.2458 22.4903 33.6672 23.4822 33.6672 24.5166C33.6672 25.5509 33.2458 26.5429 32.4957 27.2743C31.7456 28.0057 30.7282 28.4166 29.6674 28.4166V30.3666C31.2586 30.3666 32.7847 29.7503 33.9099 28.6532C35.0351 27.5561 35.6672 26.0681 35.6672 24.5166C35.6672 22.9651 35.0351 21.4771 33.9099 20.38C32.7847 19.2829 31.2586 18.6666 29.6674 18.6666ZM21.6676 30.546V17.6916H19.6677V30.546C19.0005 30.776 18.4382 31.2286 18.0801 31.8237C17.722 32.4189 17.5913 33.1183 17.7109 33.7983C17.8306 34.4784 18.193 35.0953 18.734 35.54C19.2751 35.9848 19.96 36.2287 20.6676 36.2287C21.3753 36.2287 22.0602 35.9848 22.6012 35.54C23.1423 35.0953 23.5047 34.4784 23.6243 33.7983C23.744 33.1183 23.6133 32.4189 23.2552 31.8237C22.8971 31.2286 22.3348 30.776 21.6676 30.546Z" fill="#303036"/>
<path d="M20.6676 40.1166C19.2897 40.1181 17.9419 39.7226 16.7937 38.9798C15.6455 38.237 14.7479 37.1799 14.2138 35.9414C13.6796 34.7029 13.5326 33.3381 13.7913 32.0184C14.05 30.6987 14.7028 29.483 15.6678 28.5238V17.6916C15.6678 16.3987 16.1946 15.1587 17.1322 14.2444C18.0699 13.3302 19.3416 12.8166 20.6676 12.8166C21.9937 12.8166 23.2654 13.3302 24.2031 14.2444C25.1407 15.1587 25.6675 16.3987 25.6675 17.6916V28.5238C26.6325 29.483 27.2853 30.6987 27.544 32.0184C27.8027 33.3381 27.6557 34.7029 27.1215 35.9414C26.5874 37.1799 25.6898 38.237 24.5416 38.9798C23.3934 39.7226 22.0456 40.1181 20.6676 40.1166ZM20.6676 14.7666C19.8723 14.7674 19.1097 15.0758 18.5473 15.6242C17.9848 16.1725 17.6685 16.9161 17.6677 17.6916V29.375L17.3357 29.6665C16.5807 30.3246 16.0483 31.1907 15.8092 32.1502C15.57 33.1098 15.6354 34.1175 15.9966 35.04C16.3578 35.9625 16.9978 36.7563 17.8319 37.3164C18.666 37.8764 19.6549 38.1763 20.6676 38.1763C21.6804 38.1763 22.6693 37.8764 23.5034 37.3164C24.3375 36.7563 24.9775 35.9625 25.3387 35.04C25.6999 34.1175 25.7652 33.1098 25.5261 32.1502C25.287 31.1907 24.7546 30.3246 23.9995 29.6665L23.6676 29.375V17.6916C23.6668 16.9161 23.3504 16.1725 22.788 15.6242C22.2256 15.0758 21.463 14.7674 20.6676 14.7666Z" fill="#303036"/>
</svg>
