<svg width="50" height="50" viewBox="0 0 50 50" fill="none" xmlns="http://www.w3.org/2000/svg">
<rect x="0.333984" y="0.720093" width="49.0966" height="49.0966" rx="24.5483" fill="#FF8A00"/>
<path d="M23.6554 9.31194C19.942 9.31194 16.7017 12.0232 15.834 15.7286C15.124 16.0173 14.4754 16.4493 13.9255 16.9998C13.3756 17.5504 12.9352 18.2086 12.6293 18.937C8.60649 18.6272 5.24414 21.9856 5.24414 26.1222C5.24414 30.0954 8.34068 33.3265 12.1483 33.3265V30.9251C9.60875 30.9251 7.54554 28.7722 7.54554 26.1222C7.54554 23.4722 9.60875 21.3192 12.1483 21.3192C12.4671 21.3192 12.7996 21.3613 13.1644 21.4453L14.2875 21.7131L14.5407 20.5364C14.6828 19.8807 14.9981 19.2796 15.4508 18.8013C15.9035 18.323 16.4756 17.9865 17.1021 17.8299L17.8616 17.6426L17.9743 16.8357C18.3828 13.9131 20.8281 11.7134 23.6554 11.7134C24.7204 11.7114 25.765 12.0193 26.6716 12.6026C27.5782 13.1859 28.3109 14.0215 28.7875 15.0154L29.242 15.9532L30.1959 15.6062C30.7345 15.414 31.2293 15.3156 31.7103 15.3156C34.2499 15.3156 36.3131 17.4685 36.3131 20.1185C36.3131 20.1665 36.3039 20.2074 36.2947 20.2506C36.2866 20.3346 36.2774 20.4187 36.2716 20.4979L36.2003 21.3625L36.9644 21.7035C37.7959 22.071 38.5051 22.6862 39.0033 23.4721C39.5015 24.2581 39.7665 25.1799 39.7652 26.1222C39.7652 28.7722 37.702 30.9251 35.1624 30.9251H32.2361C32.8399 31.6237 33.3056 32.4398 33.6066 33.3265H35.1624C38.97 33.3265 42.0666 30.099 42.0666 26.1222C42.0664 24.8564 41.7469 23.6129 41.1401 22.5169C40.5333 21.4209 39.6606 20.5108 38.6099 19.8784C38.5479 18.0112 37.7941 16.242 36.5072 14.943C35.2203 13.6441 33.5007 12.9167 31.7103 12.9141C31.2615 12.9141 30.8162 12.9658 30.3616 13.0642C29.6288 11.9084 28.6324 10.9605 27.462 10.3056C26.2915 9.65071 24.9835 9.30927 23.6554 9.31194ZM23.08 20.1185C21.7717 20.1185 20.5945 20.7789 19.8615 21.7971L21.7003 23.238C21.8605 23.0142 22.0688 22.8326 22.3084 22.7079C22.548 22.5832 22.8123 22.5188 23.08 22.52C24.0466 22.52 24.8061 23.3125 24.8061 24.3211C24.8061 25.3297 24.0466 26.1222 23.08 26.1222H15.6004V28.5236H23.08C25.2917 28.5236 27.1075 26.6289 27.1075 24.3211C27.1075 22.0133 25.2917 20.1185 23.08 20.1185ZM14.4497 30.9251V33.3265H17.9019C18.5531 33.3265 19.0526 33.8477 19.0526 34.5273C19.0526 35.2069 18.5531 35.728 17.9019 35.728C17.7001 35.7293 17.5016 35.6744 17.327 35.5688C17.1524 35.4633 17.008 35.311 16.9088 35.1276L14.9181 36.3428C15.2243 36.885 15.6604 37.3347 16.1835 37.648C16.7066 37.9612 17.2987 38.1271 17.9019 38.1295C19.7948 38.1295 21.354 36.5025 21.354 34.5273C21.349 34.117 21.2758 33.7107 21.1376 33.3265H27.1075C28.3928 33.3265 29.4089 34.3868 29.4089 35.728C29.4089 37.0692 28.3928 38.1295 27.1075 38.1295C26.6309 38.1296 26.1661 37.9753 25.7771 37.688C25.3882 37.4006 25.0943 36.9944 24.9361 36.5253L22.7659 37.3226C23.0828 38.2601 23.6705 39.0721 24.4481 39.6467C25.2256 40.2213 26.1547 40.5302 27.1075 40.5309C29.639 40.5309 31.7103 38.3696 31.7103 35.728C31.7103 33.0864 29.639 30.9251 27.1075 30.9251H14.4497Z" fill="#303036"/>
</svg>
