<svg width="38" height="32" viewBox="0 0 38 32" fill="none" xmlns="http://www.w3.org/2000/svg">
<path d="M18.6554 0.311936C14.942 0.311936 11.7017 3.02319 10.834 6.72864C10.124 7.01733 9.47542 7.4493 8.92552 7.99982C8.37562 8.55035 7.93516 9.20863 7.62934 9.93699C3.60649 9.6272 0.244141 12.9856 0.244141 17.1222C0.244141 21.0954 3.34068 24.3265 7.14835 24.3265V21.9251C4.60875 21.9251 2.54554 19.7722 2.54554 17.1222C2.54554 14.4722 4.60875 12.3192 7.14835 12.3192C7.46709 12.3192 7.79964 12.3613 8.16441 12.4453L9.2875 12.7131L9.54065 11.5364C9.68283 10.8807 9.99812 10.2796 10.4508 9.80128C10.9035 9.32295 11.4756 8.98646 12.1021 8.82992L12.8616 8.6426L12.9743 7.83571C13.3828 4.91314 15.8281 2.7134 18.6554 2.7134C19.7204 2.71138 20.765 3.01932 21.6716 3.60263C22.5782 4.18593 23.3109 5.02148 23.7875 6.01541L24.242 6.95318L25.1959 6.60617C25.7345 6.41405 26.2293 6.31559 26.7103 6.31559C29.2499 6.31559 31.3131 8.4685 31.3131 11.1185C31.3131 11.1665 31.3039 11.2074 31.2947 11.2506C31.2866 11.3346 31.2774 11.4187 31.2716 11.4979L31.2003 12.3625L31.9644 12.7035C32.7959 13.071 33.5051 13.6862 34.0033 14.4721C34.5015 15.2581 34.7665 16.1799 34.7652 17.1222C34.7652 19.7722 32.702 21.9251 30.1624 21.9251H27.2361C27.8399 22.6237 28.3056 23.4398 28.6066 24.3265H30.1624C33.97 24.3265 37.0666 21.099 37.0666 17.1222C37.0664 15.8564 36.7469 14.6129 36.1401 13.5169C35.5333 12.4209 34.6606 11.5108 33.6099 10.8784C33.5479 9.0112 32.7941 7.24195 31.5072 5.94301C30.2203 4.64406 28.5007 3.91674 26.7103 3.91413C26.2615 3.91413 25.8162 3.96576 25.3616 4.06422C24.6288 2.90841 23.6324 1.96052 22.462 1.30562C21.2915 0.650709 19.9835 0.30927 18.6554 0.311936ZM18.08 11.1185C16.7717 11.1185 15.5945 11.7789 14.8615 12.7971L16.7003 14.238C16.8605 14.0142 17.0688 13.8326 17.3084 13.7079C17.548 13.5832 17.8123 13.5188 18.08 13.52C19.0466 13.52 19.8061 14.3125 19.8061 15.3211C19.8061 16.3297 19.0466 17.1222 18.08 17.1222H10.6004V19.5236H18.08C20.2917 19.5236 22.1075 17.6289 22.1075 15.3211C22.1075 13.0133 20.2917 11.1185 18.08 11.1185ZM9.44975 21.9251V24.3265H12.9019C13.5531 24.3265 14.0526 24.8477 14.0526 25.5273C14.0526 26.2069 13.5531 26.728 12.9019 26.728C12.7001 26.7293 12.5016 26.6744 12.327 26.5688C12.1524 26.4633 12.008 26.311 11.9088 26.1276L9.91808 27.3428C10.2243 27.885 10.6604 28.3347 11.1835 28.648C11.7066 28.9612 12.2987 29.1271 12.9019 29.1295C14.7948 29.1295 16.354 27.5025 16.354 25.5273C16.349 25.117 16.2758 24.7107 16.1376 24.3265H22.1075C23.3928 24.3265 24.4089 25.3868 24.4089 26.728C24.4089 28.0692 23.3928 29.1295 22.1075 29.1295C21.6309 29.1296 21.1661 28.9753 20.7771 28.688C20.3882 28.4006 20.0943 27.9944 19.9361 27.5253L17.7659 28.3226C18.0828 29.2601 18.6705 30.0721 19.4481 30.6467C20.2256 31.2213 21.1547 31.5302 22.1075 31.5309C24.639 31.5309 26.7103 29.3696 26.7103 26.728C26.7103 24.0864 24.639 21.9251 22.1075 21.9251H9.44975Z" fill="#303036"/>
</svg>
